<svg width="1920" height="1078" viewBox="0 0 1920 1078" fill="none" xmlns="http://www.w3.org/2000/svg">
<circle cx="1559" cy="446" r="179" stroke="#F2C94C" stroke-opacity="0.2" stroke-width="50"/>
<path d="M1231.69 875.688C1231.69 878.361 1229.52 880.532 1226.84 880.532C1224.17 880.532 1222 878.361 1222 875.688C1222 873.016 1224.17 870.845 1226.84 870.845C1229.52 870.845 1231.69 873.01 1231.69 875.688Z" stroke="#4D2C5E" stroke-opacity="0.1" stroke-width="2" stroke-miterlimit="10" stroke-linecap="round" stroke-linejoin="round"/>
<path d="M1278.68 917.696C1281.35 917.696 1283.52 915.527 1283.52 912.852C1283.52 910.177 1281.35 908.009 1278.68 908.009C1276 908.009 1273.84 910.177 1273.84 912.852C1273.84 915.527 1276 917.696 1278.68 917.696Z" stroke="#4D2C5E" stroke-opacity="0.1" stroke-width="2" stroke-miterlimit="10" stroke-linecap="round" stroke-linejoin="round"/>
<path d="M1260.44 902.894C1266.15 902.894 1270.77 898.27 1270.77 892.564C1270.77 886.859 1266.15 882.234 1260.44 882.234C1254.74 882.234 1250.11 886.859 1250.11 892.564C1250.11 898.27 1254.74 902.894 1260.44 902.894Z" stroke="#4D2C5E" stroke-opacity="0.1" stroke-width="2" stroke-miterlimit="10" stroke-linecap="round" stroke-linejoin="round"/>
<path d="M1278.44 892.565L1275 898.587L1273.17 905.291L1266.47 907.113L1260.45 910.563L1254.42 907.113L1247.71 905.291L1245.89 898.587L1242.44 892.565L1245.89 886.537L1247.71 879.833L1254.42 878.011L1260.45 874.561L1266.47 878.011L1273.17 879.833L1275 886.537L1278.44 892.565Z" stroke="#4D2C5E" stroke-opacity="0.1" stroke-width="2" stroke-miterlimit="10" stroke-linecap="round" stroke-linejoin="round"/>
<path d="M1273.84 912.853C1273.84 910.18 1276.01 908.009 1278.68 908.009C1280.12 908.009 1281.42 908.646 1282.31 909.65C1285.99 904.936 1288.2 899.01 1288.2 892.559C1288.2 877.227 1275.77 864.8 1260.44 864.8C1245.11 864.8 1232.68 877.227 1232.68 892.559C1232.68 907.89 1245.11 920.318 1260.44 920.318C1265.83 920.318 1270.85 918.779 1275.11 916.123C1274.33 915.26 1273.84 914.116 1273.84 912.853Z" stroke="#4D2C5E" stroke-opacity="0.1" stroke-width="2" stroke-miterlimit="10" stroke-linecap="round" stroke-linejoin="round"/>
<path d="M1260.45 855C1247.49 855 1236.07 861.558 1229.32 871.533C1230.74 872.378 1231.69 873.923 1231.69 875.694C1231.69 878.367 1229.52 880.538 1226.85 880.538C1226.19 880.538 1225.56 880.402 1224.99 880.165C1223.63 884.05 1222.89 888.217 1222.89 892.565C1222.89 913.309 1239.71 930.13 1260.45 930.13C1281.2 930.13 1298.02 913.309 1298.02 892.565C1298.02 871.82 1281.19 855 1260.45 855Z" stroke="#4D2C5E" stroke-opacity="0.1" stroke-width="2" stroke-miterlimit="10" stroke-linecap="round" stroke-linejoin="round"/>
<path d="M1372.84 252.225L1349.53 244.31C1347.07 243.476 1345.76 240.799 1346.59 238.337C1347.42 235.874 1350.1 234.559 1352.56 235.393L1375.86 243.309C1378.33 244.143 1379.64 246.819 1378.81 249.275C1377.97 251.745 1375.3 253.066 1372.84 252.225Z" stroke="#4D2C5E" stroke-opacity="0.1" stroke-width="3" stroke-miterlimit="10"/>
<path d="M1369.78 261.249L1346.47 253.334C1344.01 252.499 1342.69 249.823 1343.53 247.367C1344.36 244.904 1347.04 243.589 1349.5 244.424L1372.81 252.332C1375.27 253.167 1376.58 255.843 1375.75 258.306C1374.91 260.769 1372.24 262.083 1369.78 261.249Z" stroke="#4D2C5E" stroke-opacity="0.1" stroke-width="3" stroke-miterlimit="10"/>
<path d="M1349.06 211.053C1349.09 211.133 1349.11 211.207 1349.13 211.287C1349.65 212.949 1352.72 223.48 1351.44 235.167L1376.44 243.416C1382.37 233.265 1391.11 226.637 1392.52 225.609C1392.58 225.563 1392.65 225.516 1392.71 225.469C1393.39 224.982 1394.05 224.461 1394.69 223.907C1398.46 220.657 1401.42 216.379 1403.09 211.32C1408.01 196.423 1399.92 180.359 1385.02 175.44C1370.12 170.521 1354.06 178.61 1349.14 193.507C1347.46 198.572 1347.3 203.772 1348.39 208.624C1348.58 209.438 1348.8 210.252 1349.06 211.053Z" stroke="#4D2C5E" stroke-opacity="0.1" stroke-width="3" stroke-miterlimit="10"/>
<path d="M1347.74 253.881C1347.46 258.82 1350.51 263.525 1355.43 265.153C1360.29 266.755 1365.46 264.853 1368.21 260.829L1347.74 253.881Z" stroke="#4D2C5E" stroke-opacity="0.1" stroke-width="3" stroke-miterlimit="10"/>
<path d="M1359.27 237.616L1366.7 215.104C1367.44 212.888 1366.23 210.499 1364.01 209.765C1361.8 209.031 1359.41 210.239 1358.67 212.454C1357.94 214.67 1359.15 217.06 1361.36 217.794L1370.28 220.737" stroke="#4D2C5E" stroke-opacity="0.1" stroke-width="3" stroke-miterlimit="10"/>
<path d="M1369.07 240.853L1376.5 218.342C1377.23 216.126 1379.62 214.924 1381.84 215.652C1384.05 216.386 1385.26 218.775 1384.53 220.991C1383.79 223.207 1381.4 224.408 1379.19 223.681L1370.27 220.737" stroke="#4D2C5E" stroke-opacity="0.1" stroke-width="3" stroke-miterlimit="10"/>
<path d="M1408.37 219.075L1415.9 221.565" stroke="#4D2C5E" stroke-opacity="0.1" stroke-width="3" stroke-miterlimit="10" stroke-linecap="round"/>
<path d="M1411.82 209.591L1419.66 208.41" stroke="#4D2C5E" stroke-opacity="0.1" stroke-width="3" stroke-miterlimit="10" stroke-linecap="round"/>
<path d="M1403.1 227.211L1408.69 232.831" stroke="#4D2C5E" stroke-opacity="0.1" stroke-width="3" stroke-miterlimit="10" stroke-linecap="round"/>
<path d="M1338.44 195.996L1330.91 193.514" stroke="#4D2C5E" stroke-opacity="0.1" stroke-width="3" stroke-miterlimit="10" stroke-linecap="round"/>
<path d="M1341.32 186.319L1335.73 180.699" stroke="#4D2C5E" stroke-opacity="0.1" stroke-width="3" stroke-miterlimit="10" stroke-linecap="round"/>
<path d="M1337.84 205.667L1330 206.848" stroke="#4D2C5E" stroke-opacity="0.1" stroke-width="3" stroke-miterlimit="10" stroke-linecap="round"/>
<path d="M1136.99 330.578L1067.79 309.906C1062.76 308.404 1059.9 303.107 1061.4 298.073L1075.22 251.788C1076.72 246.755 1082.02 243.898 1087.05 245.4L1156.26 266.073C1161.29 267.575 1164.15 272.872 1162.65 277.905L1148.83 324.19C1147.32 329.217 1142.02 332.08 1136.99 330.578Z" stroke="#4D2C5E" stroke-opacity="0.1" stroke-width="4" stroke-miterlimit="10" stroke-linecap="round"/>
<path d="M1063.03 292.601L1150.46 318.717" stroke="#4D2C5E" stroke-opacity="0.1" stroke-width="4" stroke-miterlimit="10" stroke-linecap="round"/>
<path d="M1106.96 313.244C1106.58 314.499 1105.26 315.215 1104 314.84C1102.74 314.464 1102.03 313.138 1102.4 311.883C1102.78 310.628 1104.11 309.912 1105.36 310.287C1106.62 310.663 1107.33 311.989 1106.96 313.244Z" fill="#4D2C5E" fill-opacity="0.5"/>
<path d="M1112.2 323.179L1092.6 317.324L1089.96 326.166L1109.56 332.021L1112.2 323.179Z" stroke="#4D2C5E" stroke-opacity="0.1" stroke-width="4" stroke-miterlimit="10" stroke-linecap="round"/>
<path d="M1082.69 324.501L1116.52 334.609" stroke="#4D2C5E" stroke-opacity="0.1" stroke-width="4" stroke-miterlimit="10" stroke-linecap="round"/>
<path d="M1809.72 257.636C1831.41 257.636 1849 249.3 1849 239.017C1849 228.734 1831.41 220.397 1809.72 220.397C1788.02 220.397 1770.44 228.734 1770.44 239.017C1770.44 249.3 1788.02 257.636 1809.72 257.636Z" stroke="#4D2C5E" stroke-opacity="0.1" stroke-width="3" stroke-miterlimit="10" stroke-linecap="round" stroke-linejoin="round"/>
<path d="M1825.6 248.722C1836.88 230.194 1838.91 210.838 1830.12 205.491C1821.34 200.144 1805.08 210.83 1793.8 229.358C1782.52 247.887 1780.49 267.242 1789.27 272.589C1798.06 277.936 1814.32 267.251 1825.6 248.722Z" stroke="#4D2C5E" stroke-opacity="0.1" stroke-width="3" stroke-miterlimit="10" stroke-linecap="round" stroke-linejoin="round"/>
<path d="M1830.12 272.581C1838.9 267.234 1836.87 247.879 1825.59 229.35C1814.31 210.822 1798.05 200.136 1789.27 205.483C1780.48 210.83 1782.51 230.185 1793.79 248.714C1805.07 267.243 1821.33 277.928 1830.12 272.581Z" stroke="#4D2C5E" stroke-opacity="0.1" stroke-width="3" stroke-miterlimit="10" stroke-linecap="round" stroke-linejoin="round"/>
<path d="M1809.72 243.945C1812.44 243.945 1814.65 241.739 1814.65 239.017C1814.65 236.295 1812.44 234.088 1809.72 234.088C1807 234.088 1804.79 236.295 1804.79 239.017C1804.79 241.739 1807 243.945 1809.72 243.945Z" stroke="#4D2C5E" stroke-opacity="0.1" stroke-width="3" stroke-miterlimit="10" stroke-linecap="round" stroke-linejoin="round"/>
<path d="M1823.54 826.642L1791.11 834.13L1789.65 827.808C1789.31 826.342 1790.22 824.884 1791.69 824.542L1818.82 818.276C1820.28 817.941 1821.74 818.848 1822.08 820.313L1823.54 826.642Z" stroke="#4D2C5E" stroke-opacity="0.1" stroke-width="3" stroke-miterlimit="10" stroke-linecap="round"/>
<path d="M1812.88 792.643C1827.18 781.116 1829.42 760.182 1817.89 745.886C1806.37 731.589 1785.43 729.344 1771.14 740.872C1756.84 752.399 1754.59 773.333 1766.12 787.629C1777.65 801.925 1798.58 804.17 1812.88 792.643Z" stroke="#4D2C5E" stroke-opacity="0.1" stroke-width="3" stroke-miterlimit="10"/>
<path d="M1807.48 796.176L1776.47 737.35L1772.6 730.211C1752.38 740.867 1744.64 765.89 1755.29 786.106C1765.95 806.322 1790.97 814.068 1811.19 803.412L1807.4 796.224" stroke="#4D2C5E" stroke-opacity="0.1" stroke-width="3" stroke-miterlimit="10" stroke-linecap="round" stroke-linejoin="round"/>
<path d="M1783.31 750.24C1793.46 744.887 1800.16 737.654 1798.28 734.084C1796.4 730.515 1786.64 731.961 1776.49 737.314C1766.34 742.666 1759.64 749.899 1761.52 753.469C1763.4 757.038 1773.15 755.593 1783.31 750.24Z" stroke="#4D2C5E" stroke-opacity="0.1" stroke-width="3" stroke-miterlimit="10"/>
<path d="M1785.69 799.406C1792.86 800.788 1800.53 799.846 1807.48 796.175C1814.44 792.505 1819.56 786.713 1822.47 780.021C1815.3 778.639 1807.63 779.581 1800.67 783.252C1793.71 786.922 1788.6 792.714 1785.69 799.406Z" stroke="#4D2C5E" stroke-opacity="0.1" stroke-width="3" stroke-miterlimit="10"/>
<path d="M1807.51 796.14C1815.63 791.858 1815.27 775.218 1806.7 758.973C1798.14 742.728 1784.61 733.03 1776.49 737.312C1768.37 741.594 1768.73 758.233 1777.3 774.478C1785.86 790.723 1799.39 800.421 1807.51 796.14Z" stroke="#4D2C5E" stroke-opacity="0.1" stroke-width="3" stroke-miterlimit="10"/>
<path d="M1762.57 782.268L1821.39 751.257" stroke="#4D2C5E" stroke-opacity="0.1" stroke-width="3" stroke-miterlimit="10"/>
<path d="M1801.64 807.033L1805.07 821.352" stroke="#4D2C5E" stroke-opacity="0.1" stroke-width="3" stroke-miterlimit="10"/>
<path d="M1787.21 835.463L1828.56 825.547" stroke="#4D2C5E" stroke-opacity="0.1" stroke-width="3" stroke-miterlimit="10" stroke-linecap="round"/>
<path d="M1845.73 619.023L1863.03 601.719L1815.08 553.769L1797.78 571.073L1845.73 619.023Z" stroke="#4D2C5E" stroke-opacity="0.1" stroke-width="3" stroke-miterlimit="10" stroke-linecap="round" stroke-linejoin="round"/>
<path d="M1867.71 623.705L1863.03 601.715L1845.72 619.02L1867.71 623.705Z" stroke="#4D2C5E" stroke-opacity="0.1" stroke-width="3" stroke-miterlimit="10" stroke-linecap="round" stroke-linejoin="round"/>
<path d="M1865.53 613.445L1857.45 621.519" stroke="#4D2C5E" stroke-opacity="0.1" stroke-width="3" stroke-miterlimit="10" stroke-linecap="round" stroke-linejoin="round"/>
<path d="M1792.68 557.881L1801.88 548.68C1804.12 546.44 1807.75 546.44 1809.98 548.68L1815.07 553.768L1797.77 571.073L1792.68 565.985C1790.44 563.746 1790.44 560.112 1792.68 557.881Z" stroke="#4D2C5E" stroke-opacity="0.1" stroke-width="3" stroke-miterlimit="10" stroke-linecap="round" stroke-linejoin="round"/>
<path d="M1819.75 558.437L1802.45 575.75" stroke="#4D2C5E" stroke-opacity="0.1" stroke-width="3" stroke-miterlimit="10" stroke-linecap="round" stroke-linejoin="round"/>
<path d="M1854.38 610.368L1811.1 567.097" stroke="#4D2C5E" stroke-opacity="0.1" stroke-width="3" stroke-miterlimit="10" stroke-linecap="round" stroke-linejoin="round"/>
<path d="M493.028 828.207L489.843 835.467" stroke="#4D2C5E" stroke-opacity="0.1" stroke-width="4" stroke-miterlimit="10" stroke-linecap="round" stroke-linejoin="round"/>
<path d="M516.145 838.348L512.96 845.608" stroke="#4D2C5E" stroke-opacity="0.1" stroke-width="4" stroke-miterlimit="10" stroke-linecap="round" stroke-linejoin="round"/>
<path d="M539.27 848.484L536.085 855.744" stroke="#4D2C5E" stroke-opacity="0.1" stroke-width="4" stroke-miterlimit="10" stroke-linecap="round" stroke-linejoin="round"/>
<path d="M477.556 821.422L475.963 825.057" stroke="#4D2C5E" stroke-opacity="0.1" stroke-width="4" stroke-miterlimit="10" stroke-linecap="round" stroke-linejoin="round"/>
<path d="M485.292 824.82L483.7 828.445" stroke="#4D2C5E" stroke-opacity="0.1" stroke-width="4" stroke-miterlimit="10" stroke-linecap="round" stroke-linejoin="round"/>
<path d="M500.72 831.578L499.127 835.214" stroke="#4D2C5E" stroke-opacity="0.1" stroke-width="4" stroke-miterlimit="10" stroke-linecap="round" stroke-linejoin="round"/>
<path d="M508.452 834.971L506.865 838.601" stroke="#4D2C5E" stroke-opacity="0.1" stroke-width="4" stroke-miterlimit="10" stroke-linecap="round" stroke-linejoin="round"/>
<path d="M523.884 841.735L522.291 845.371" stroke="#4D2C5E" stroke-opacity="0.1" stroke-width="4" stroke-miterlimit="10" stroke-linecap="round" stroke-linejoin="round"/>
<path d="M547.382 852.041L545.795 855.672" stroke="#4D2C5E" stroke-opacity="0.1" stroke-width="4" stroke-miterlimit="10" stroke-linecap="round" stroke-linejoin="round"/>
<path d="M531.612 845.127L530.026 848.757" stroke="#4D2C5E" stroke-opacity="0.1" stroke-width="4" stroke-miterlimit="10" stroke-linecap="round" stroke-linejoin="round"/>
<path d="M534.268 910.091L457.93 812.821L557.731 856.577L534.268 910.091Z" stroke="#4D2C5E" stroke-opacity="0.1" stroke-width="4" stroke-miterlimit="10" stroke-linecap="round" stroke-linejoin="round"/>
<path d="M530.377 879.391L509.493 852.781L536.792 864.746L530.377 879.391Z" stroke="#4D2C5E" stroke-opacity="0.1" stroke-width="4" stroke-miterlimit="10" stroke-linecap="round" stroke-linejoin="round"/>
<path d="M720.774 196L692 209.912L749.351 328.527L778.124 314.614L720.774 196Z" stroke="#4D2C5E" stroke-opacity="0.1" stroke-width="4" stroke-miterlimit="10" stroke-linecap="round" stroke-linejoin="round"/>
<path d="M727.638 210.233L713.258 217.183" stroke="#4D2C5E" stroke-opacity="0.1" stroke-width="4" stroke-miterlimit="10" stroke-linecap="round" stroke-linejoin="round"/>
<path d="M740.929 237.714L726.539 244.674" stroke="#4D2C5E" stroke-opacity="0.1" stroke-width="4" stroke-miterlimit="10" stroke-linecap="round" stroke-linejoin="round"/>
<path d="M754.218 265.193L739.828 272.153" stroke="#4D2C5E" stroke-opacity="0.1" stroke-width="4" stroke-miterlimit="10" stroke-linecap="round" stroke-linejoin="round"/>
<path d="M767.501 292.684L753.121 299.634" stroke="#4D2C5E" stroke-opacity="0.1" stroke-width="4" stroke-miterlimit="10" stroke-linecap="round" stroke-linejoin="round"/>
<path d="M732.042 219.334L724.852 222.804" stroke="#4D2C5E" stroke-opacity="0.1" stroke-width="4" stroke-miterlimit="10" stroke-linecap="round" stroke-linejoin="round"/>
<path d="M736.479 228.523L729.289 232.003" stroke="#4D2C5E" stroke-opacity="0.1" stroke-width="4" stroke-miterlimit="10" stroke-linecap="round" stroke-linejoin="round"/>
<path d="M745.35 246.863L738.16 250.333" stroke="#4D2C5E" stroke-opacity="0.1" stroke-width="4" stroke-miterlimit="10" stroke-linecap="round" stroke-linejoin="round"/>
<path d="M749.792 256.054L742.602 259.534" stroke="#4D2C5E" stroke-opacity="0.1" stroke-width="4" stroke-miterlimit="10" stroke-linecap="round" stroke-linejoin="round"/>
<path d="M758.659 274.394L751.469 277.864" stroke="#4D2C5E" stroke-opacity="0.1" stroke-width="4" stroke-miterlimit="10" stroke-linecap="round" stroke-linejoin="round"/>
<path d="M763.11 283.584L755.91 287.064" stroke="#4D2C5E" stroke-opacity="0.1" stroke-width="4" stroke-miterlimit="10" stroke-linecap="round" stroke-linejoin="round"/>
<path d="M121.001 796.631L89.7708 811.301C88.1008 812.091 86.1108 811.371 85.3208 809.701L83.3208 805.441C82.5308 803.771 83.2508 801.781 84.9208 800.991L116.151 786.321C117.821 785.531 119.811 786.251 120.601 787.921L122.601 792.181C123.391 793.861 122.671 795.851 121.001 796.631Z" stroke="#4D2C5E" stroke-opacity="0.1" stroke-width="4" stroke-miterlimit="10" stroke-linecap="round"/>
<path d="M133.129 829.951L117.849 798.131L93.1289 810.001L108.409 841.821L118.049 895.061C121.219 901.671 129.149 904.451 135.749 901.281L162.439 888.461C169.049 885.291 171.829 877.361 168.659 870.761L133.129 829.951Z" stroke="#4D2C5E" stroke-opacity="0.1" stroke-width="4" stroke-miterlimit="10" stroke-linecap="round"/>
<path d="M112.75 865.831C112.75 865.831 117.85 857.571 131.41 858.041C144.97 858.511 147.25 846.161 147.25 846.161" stroke="#4D2C5E" stroke-opacity="0.1" stroke-width="4" stroke-miterlimit="10" stroke-linecap="round"/>
<path d="M164.48 281.96C176.343 281.96 185.96 272.343 185.96 260.48C185.96 248.617 176.343 239 164.48 239C152.617 239 143 248.617 143 260.48C143 272.343 152.617 281.96 164.48 281.96Z" stroke="#4D2C5E" stroke-opacity="0.1" stroke-width="4" stroke-miterlimit="10" stroke-linecap="round" stroke-linejoin="round"/>
<path d="M194.59 303.18C199.334 303.18 203.18 299.334 203.18 294.59C203.18 289.846 199.334 286 194.59 286C189.846 286 186 289.846 186 294.59C186 299.334 189.846 303.18 194.59 303.18Z" stroke="#4D2C5E" stroke-opacity="0.1" stroke-width="4" stroke-miterlimit="10" stroke-linecap="round" stroke-linejoin="round"/>
</svg>
