<svg width="694" height="645" viewBox="0 0 694 645" fill="none" xmlns="http://www.w3.org/2000/svg">
<path d="M368.723 644.092C511.06 644.092 626.446 637.073 626.446 628.415C626.446 619.758 511.06 612.739 368.723 612.739C226.387 612.739 111 619.758 111 628.415C111 637.073 226.387 644.092 368.723 644.092Z" fill="#CED3E6"/>
<path d="M352.654 191.867L378.686 287.063L369.398 276.369C372.832 278.201 376.818 279.607 381.213 280.586C385.608 281.582 390.412 282.152 395.43 282.401C400.448 282.668 405.679 282.614 411.035 282.401C416.391 282.169 421.853 281.778 427.405 281.298H427.441C435.626 280.604 442.832 286.671 443.526 294.856C444.184 302.668 438.651 309.572 431.053 310.817C425.323 311.725 419.505 312.597 413.544 313.291C407.565 313.984 401.444 314.5 395.11 314.643C388.775 314.785 382.209 314.536 375.412 313.557C368.633 312.579 361.604 310.799 354.736 307.846C350.341 305.942 347.209 302.347 345.786 298.13L345.447 297.134L314.22 203.522C310.714 193.005 316.39 181.618 326.924 178.112C337.44 174.607 348.828 180.283 352.334 190.817C352.44 191.137 352.565 191.529 352.654 191.867Z" fill="#EA9B7A"/>
<path d="M362.675 536.957C362.284 536.957 361.892 536.886 361.501 536.743L225.13 487.579C223.351 486.939 222.426 484.964 223.066 483.184C223.707 481.405 225.682 480.462 227.461 481.12L363.832 530.284C365.611 530.925 366.554 532.9 365.896 534.679C365.416 536.085 364.081 536.957 362.675 536.957Z" fill="#C77E2E"/>
<path d="M220.629 536.957C219.223 536.957 217.907 536.085 217.391 534.679C216.75 532.9 217.675 530.925 219.455 530.266L357.444 480.284C359.224 479.644 361.199 480.569 361.857 482.348C362.498 484.128 361.572 486.103 359.793 486.761L221.803 536.743C221.412 536.886 221.021 536.957 220.629 536.957Z" fill="#C77E2E"/>
<path d="M374.811 624.822C371.911 624.822 369.384 622.669 368.975 619.715L344.348 435.782H241.27L217.017 619.715C216.59 622.935 213.636 625.213 210.416 624.786C207.195 624.359 204.917 621.405 205.344 618.185L230.273 429.163C230.665 426.227 233.156 424.038 236.11 424.038H349.509C352.462 424.038 354.953 426.227 355.345 429.145L380.665 618.167C381.092 621.387 378.832 624.359 375.612 624.786C375.327 624.804 375.078 624.822 374.811 624.822Z" fill="#FAAF3A"/>
<path d="M316.66 429.91H243.012C219.684 429.91 194.702 417.134 191.108 394.091C186.321 363.255 185.129 333.415 186.464 306.013C187.976 275.034 202.78 246.208 227.122 226.991C227.122 226.991 241.837 291.102 223.332 379.589C230.414 413.184 316.66 429.91 316.66 429.91Z" fill="#FAAF3A"/>
<path d="M301.305 53.9125C301.305 53.9125 292.55 32.8092 269.365 36.795C253.173 39.5708 246.269 59.7488 247.212 90.9232C248.6 136.279 233.262 163.61 233.262 163.61L253.618 168.237C253.635 168.219 305.468 90.4606 301.305 53.9125Z" fill="#39393B"/>
<path d="M487.035 546.013H454.134C454.134 546.013 446.519 509.501 443.974 489.038C441.412 468.558 440.095 420.034 440.095 420.034C440.095 420.034 413.885 428.557 359.01 425.337C237.426 418.237 283.529 328.913 283.529 328.913C287.639 334.589 312.8 330.657 330.006 333.361C382.8 338.433 428.565 359.144 456.038 370.995C462.658 373.842 468.53 376.867 473.69 380.052C480.309 384.127 484.455 396.529 486.964 412.81C494.455 461.76 487.035 546.013 487.035 546.013Z" fill="#39393B"/>
<path d="M458.229 528.416C457.677 528.416 457.197 528.024 457.072 527.473C452.321 503.985 450.737 474.75 449.456 451.262C448.389 431.778 447.392 413.38 444.883 411.173C442.855 409.376 434.438 410.782 423.798 412.543C402.606 416.067 370.577 421.369 335.274 413.166C316.04 408.682 301.894 399.341 293.246 385.39C278.317 361.333 285.132 331.493 285.203 331.191C285.346 330.55 285.986 330.159 286.627 330.319C287.267 330.461 287.659 331.102 287.499 331.743C287.427 332.027 280.862 360.942 295.274 384.163C303.584 397.561 317.232 406.547 335.826 410.871C370.684 418.985 402.428 413.718 423.442 410.23C436.022 408.148 443.62 406.885 446.485 409.412C449.581 412.152 450.453 425.604 451.841 451.138C453.122 474.554 454.705 503.683 459.421 527.01C459.545 527.651 459.136 528.273 458.495 528.398C458.371 528.416 458.3 528.416 458.229 528.416Z" fill="#585859"/>
<path d="M487.657 529.038H487.639L451.055 528.255C450.397 528.237 449.881 527.703 449.899 527.045C449.917 526.386 450.451 525.87 451.109 525.888L487.693 526.671C488.351 526.689 488.867 527.223 488.849 527.881C488.831 528.522 488.298 529.038 487.657 529.038Z" fill="#585859"/>
<path d="M486.127 588.149H462.906L458.44 560.925L455.984 546.014H484.828L485.291 560.925L486.127 588.149Z" fill="#EA9B7A"/>
<path d="M486.124 588.149H462.904L459.576 567.882L458.438 560.925H485.288L485.519 568.131L486.124 588.149Z" fill="#FAAF3A"/>
<path d="M485.519 568.131L459.576 567.882L458.438 560.925H485.288L485.519 568.131Z" fill="#C77E2E"/>
<path d="M543.421 624.821H455.61C454.951 623.629 454.596 621.957 454.453 619.946C453.902 612.508 456.268 600.658 457.425 593.184C457.567 592.312 457.692 591.494 457.781 590.764C457.941 589.519 458.048 588.469 458.048 587.704C458.048 581.601 463.439 582.65 463.439 582.65C472.318 591.369 482.389 578.291 488.261 582.579C488.261 582.579 488.492 582.757 489.044 583.166C489.542 583.558 490.29 584.163 491.322 585.035C492.816 586.28 494.916 588.095 497.763 590.658C504.738 596.939 516.589 601.067 526.678 605.284C527.959 605.818 529.151 606.369 530.272 606.903C531.108 607.312 531.909 607.722 532.656 608.113C540.913 612.562 543.528 616.832 544.133 619.928C544.72 622.917 543.421 624.821 543.421 624.821Z" fill="#0875F7"/>
<path d="M532.673 608.131C530.414 609.928 525.378 613.541 521.339 613.541C521.161 613.541 520.983 613.541 520.805 613.523C517.958 613.291 507.495 608.149 498.972 603.469C494.097 600.783 489.631 598.149 486.428 596.032C481.179 592.562 480.253 591.245 480.058 590.32C479.293 586.85 485.022 584.448 489.043 583.185C489.542 583.576 490.289 584.181 491.321 585.053C486.339 586.405 482.228 588.54 482.424 589.768C482.922 590.8 488.118 594.75 500.538 601.565C510.022 606.761 519.008 610.943 521.001 611.121C523.705 611.334 527.673 608.879 530.271 606.939C531.125 607.331 531.926 607.74 532.673 608.131Z" fill="#084FC7"/>
<path d="M543.421 624.821H455.61C454.951 623.629 454.595 621.956 454.453 619.945H544.151C544.72 622.917 543.421 624.821 543.421 624.821Z" fill="#084FC7"/>
<path d="M464.559 624.822H461.944C464.542 621.85 466.979 617.277 466.659 610.765C466.232 602.081 461.036 596.245 457.406 593.185C457.549 592.313 457.673 591.494 457.762 590.765C461.659 593.736 468.225 600.266 468.741 610.658C469.079 616.886 467.033 621.53 464.559 624.822Z" fill="#084FC7"/>
<path d="M496.285 595.853C495.645 595.853 495.04 595.408 494.88 594.75C494.684 593.967 495.164 593.184 495.93 592.988L501.41 591.618C502.193 591.422 502.976 591.903 503.172 592.668C503.367 593.451 502.887 594.234 502.122 594.429L496.641 595.799C496.517 595.835 496.392 595.853 496.285 595.853Z" fill="white"/>
<path d="M490.84 591.298C490.2 591.298 489.595 590.853 489.434 590.195C489.239 589.412 489.719 588.629 490.484 588.433L495.965 587.063C496.748 586.868 497.531 587.348 497.726 588.113C497.922 588.896 497.442 589.679 496.676 589.857L491.196 591.227C491.071 591.28 490.947 591.298 490.84 591.298Z" fill="white"/>
<path d="M501.766 599.038C501.125 599.038 500.52 598.593 500.36 597.935C500.164 597.152 500.645 596.369 501.41 596.191L506.89 594.821C507.673 594.625 508.456 595.106 508.652 595.871C508.848 596.654 508.367 597.437 507.602 597.633L502.122 599.003C501.997 599.038 501.89 599.038 501.766 599.038Z" fill="white"/>
<path d="M507.246 602.117C506.588 602.117 506.001 601.672 505.841 601.013C505.645 600.23 506.125 599.447 506.89 599.252L512.371 597.882C513.154 597.686 513.937 598.166 514.132 598.931C514.328 599.714 513.848 600.497 513.083 600.675L507.602 602.045C507.495 602.099 507.371 602.117 507.246 602.117Z" fill="white"/>
<path d="M513.242 604.945C512.602 604.945 511.997 604.501 511.837 603.842C511.641 603.059 512.121 602.276 512.887 602.098L518.367 600.728C519.15 600.533 519.933 601.013 520.129 601.778C520.324 602.561 519.844 603.344 519.079 603.54L513.598 604.91C513.474 604.928 513.349 604.945 513.242 604.945Z" fill="white"/>
<path d="M519.719 607.366C519.078 607.366 518.473 606.921 518.313 606.262C518.118 605.479 518.598 604.696 519.363 604.501L524.844 603.131C525.626 602.935 526.409 603.415 526.605 604.18C526.801 604.963 526.32 605.746 525.555 605.924L520.075 607.294C519.95 607.348 519.844 607.366 519.719 607.366Z" fill="white"/>
<path d="M222.638 300.586C222.638 300.586 221.606 307.685 231.108 309.678L330.183 312.988C330.183 312.988 336.874 309.625 335.664 301.333C335.664 301.315 293.831 277.81 222.638 300.586Z" fill="#084FC7"/>
<path d="M331.537 333.344C280.114 361.636 223.957 338.86 223.957 338.86C226.697 331.369 228.744 322.917 230.22 315.23C231.929 306.28 232.889 298.38 233.334 294.234C255.203 293.042 308.833 290.746 329.847 295.728L330.007 304.145L331.537 333.344Z" fill="#EA9B7A"/>
<path d="M293.547 319.785C293.174 322.437 291.964 324.465 290.878 324.305C289.775 324.145 289.206 321.867 289.579 319.216C289.953 316.565 291.163 314.536 292.248 314.696C293.352 314.857 293.921 317.134 293.547 319.785Z" fill="#D96C63"/>
<path d="M329.99 304.145C308.086 302.811 265.007 302.348 230.203 315.213C231.911 306.263 232.872 298.362 233.317 294.216C255.185 293.024 308.815 290.729 329.83 295.711L329.99 304.145Z" fill="#D96C63"/>
<path d="M354.419 263.45C354.206 264.09 353.957 264.678 353.672 265.229C353.565 265.443 353.458 265.656 353.352 265.852C350.594 270.959 346.341 275.389 342.764 278.539C342.017 279.197 341.305 279.784 340.647 280.318C339.33 281.386 338.209 282.222 337.444 282.774C336.732 283.272 336.323 283.539 336.323 283.539C336.323 283.592 336.323 283.628 336.305 283.699C336.27 284.073 336.234 284.482 336.198 284.909C336.074 286.528 335.967 288.45 335.896 290.656C335.825 292.418 335.771 294.357 335.736 296.457C335.718 298.005 335.682 299.624 335.665 301.297C306.608 288.308 246.75 296.51 222.639 300.567C223.084 298.485 223.476 296.439 223.849 294.446C225.558 285.247 226.518 276.973 226.892 269.553C227.462 258.521 226.501 241.937 224.152 224.802C224.01 223.681 223.849 222.578 223.689 221.475C223.582 220.745 223.476 220.033 223.351 219.304C222.533 213.93 221.572 208.539 220.486 203.307C215.735 180.496 219.063 156.563 242.195 153.734C243.867 153.521 245.522 153.343 247.141 153.165C258.031 152.008 266.999 151.599 269.49 151.51C269.953 151.492 270.184 151.492 270.184 151.492L314.882 164.482L319.134 165.709C321.572 166.492 323.832 167.257 325.932 168.005C326.821 168.325 327.693 168.645 328.512 168.948C330.682 169.766 332.64 170.549 334.437 171.35C338.013 172.934 340.843 174.482 343.085 176.065C352.889 183.023 351.376 190.887 351.127 206.421C351.127 206.492 351.127 206.563 351.127 206.635C351.127 206.83 351.127 207.026 351.127 207.24C351.127 207.329 351.127 207.418 351.127 207.507C351.127 208.147 351.127 208.77 351.127 209.411C351.145 211.421 351.216 213.414 351.341 215.407C351.501 218.343 351.768 221.261 352.088 224.108C352.213 225.247 352.337 226.386 352.48 227.524C352.604 228.592 352.747 229.642 352.889 230.692C354.633 244.286 356.857 256.208 354.419 263.45Z" fill="#0875F7"/>
<path d="M351.108 206.635C351.108 206.831 351.108 207.027 351.108 207.24C351.108 207.329 351.108 207.418 351.108 207.507C351.108 208.148 351.108 208.77 351.108 209.411L341.713 215.301C341.428 215.479 341.108 215.532 340.788 215.479C340.432 215.425 340.112 215.212 339.898 214.891C339.507 214.269 339.702 213.468 340.307 213.076L350.272 206.831C350.521 206.671 350.823 206.617 351.108 206.635Z" fill="#084FC7"/>
<path d="M289.187 256.955C288.831 256.955 288.475 256.813 288.208 256.528C287.728 255.994 287.764 255.158 288.297 254.678L297.034 246.813C297.568 246.332 298.404 246.368 298.885 246.902C299.365 247.436 299.329 248.272 298.796 248.752L290.059 256.617C289.81 256.831 289.49 256.955 289.187 256.955Z" fill="#084FC7"/>
<path d="M352.854 230.692L346.875 236.084C346.626 236.315 346.306 236.422 346.003 236.422C345.648 236.422 345.292 236.28 345.025 235.995C344.544 235.461 344.58 234.625 345.114 234.144L352.445 227.543C352.569 228.593 352.712 229.643 352.854 230.692Z" fill="#084FC7"/>
<path d="M271.465 225.318C271.269 225.015 271.18 224.642 271.269 224.268C271.429 223.556 272.141 223.129 272.853 223.289L284.294 225.994C285.006 226.154 285.433 226.866 285.273 227.578C285.112 228.289 284.401 228.716 283.689 228.556L272.248 225.852C271.91 225.781 271.643 225.585 271.465 225.318Z" fill="#084FC7"/>
<path d="M230.628 247.774C230.273 247.774 229.917 247.631 229.65 247.347C229.169 246.813 229.205 245.976 229.739 245.496L238.475 237.631C239.009 237.151 239.846 237.186 240.326 237.72C240.806 238.254 240.771 239.09 240.237 239.571L231.5 247.436C231.251 247.667 230.949 247.774 230.628 247.774Z" fill="#084FC7"/>
<path d="M332.336 245.906C332.443 245.568 332.71 245.265 333.048 245.123C333.706 244.838 334.489 245.141 334.774 245.799L339.472 256.582C339.756 257.24 339.454 258.023 338.795 258.308C338.137 258.593 337.354 258.29 337.069 257.632L332.372 246.849C332.247 246.528 332.247 246.19 332.336 245.906Z" fill="#084FC7"/>
<path d="M354.419 263.451C354.206 264.091 353.957 264.678 353.672 265.23C353.565 265.443 353.458 265.657 353.352 265.853L346.964 263.842C346.643 263.735 346.394 263.522 346.234 263.255C346.056 262.952 345.985 262.561 346.11 262.205C346.323 261.511 347.07 261.137 347.747 261.351L354.419 263.451Z" fill="#084FC7"/>
<path d="M318.332 264.393C318.688 264.358 319.061 264.465 319.346 264.731C319.88 265.212 319.915 266.048 319.435 266.582L311.535 275.283C311.054 275.817 310.218 275.852 309.684 275.372C309.15 274.892 309.115 274.055 309.595 273.522L317.495 264.82C317.727 264.571 318.029 264.429 318.332 264.393Z" fill="#084FC7"/>
<path d="M313.69 244.322C313.334 244.269 313.014 244.055 312.801 243.735C312.409 243.13 312.605 242.312 313.21 241.92L323.174 235.675C323.779 235.283 324.598 235.479 324.989 236.084C325.381 236.689 325.185 237.507 324.58 237.899L314.615 244.144C314.331 244.322 313.993 244.376 313.69 244.322Z" fill="#084FC7"/>
<path d="M320.04 206.457C320.272 206.724 320.414 207.08 320.36 207.471C320.289 208.183 319.631 208.717 318.919 208.628L307.229 207.347C306.517 207.276 305.983 206.617 306.072 205.906C306.143 205.194 306.802 204.66 307.513 204.749L319.204 206.03C319.524 206.066 319.827 206.226 320.04 206.457Z" fill="#084FC7"/>
<path d="M303.047 181.101C303.136 180.745 303.367 180.442 303.705 180.264C304.346 179.926 305.147 180.158 305.485 180.798L311.054 191.154C311.392 191.795 311.161 192.595 310.52 192.933C309.88 193.272 309.079 193.04 308.741 192.4L303.171 182.044C302.994 181.741 302.958 181.403 303.047 181.101Z" fill="#084FC7"/>
<path d="M342.78 278.557C342.033 279.215 341.321 279.802 340.663 280.336L339.132 276.422C339.008 276.101 339.008 275.781 339.132 275.479C339.257 275.141 339.524 274.856 339.88 274.713C340.556 274.447 341.321 274.785 341.588 275.461L342.78 278.557Z" fill="#084FC7"/>
<path d="M235.307 258.628C235.13 258.308 235.094 257.934 235.236 257.561C235.485 256.885 236.233 256.529 236.909 256.778L247.977 260.764C248.653 261.013 249.009 261.76 248.759 262.436C248.51 263.112 247.763 263.468 247.087 263.219L236.019 259.233C235.699 259.144 235.45 258.913 235.307 258.628Z" fill="#084FC7"/>
<path d="M240.717 273.593C241.073 273.593 241.429 273.753 241.696 274.038C242.176 274.571 242.123 275.408 241.589 275.888L232.781 283.682C232.248 284.162 231.411 284.109 230.931 283.575C230.45 283.041 230.504 282.205 231.038 281.724L239.846 273.931C240.095 273.7 240.415 273.593 240.717 273.593Z" fill="#084FC7"/>
<path d="M256.678 285.96C256.892 286.244 257.016 286.618 256.945 286.992C256.821 287.703 256.144 288.184 255.433 288.059L243.849 286.084C243.137 285.96 242.657 285.283 242.781 284.572C242.906 283.86 243.582 283.379 244.294 283.504L255.878 285.479C256.198 285.532 256.482 285.71 256.678 285.96Z" fill="#084FC7"/>
<path d="M266.378 175.888C266.289 175.55 266.324 175.158 266.538 174.838C266.929 174.233 267.748 174.055 268.353 174.446L278.228 180.816C278.833 181.208 279.011 182.026 278.62 182.631C278.228 183.236 277.41 183.414 276.805 183.023L266.929 176.653C266.644 176.457 266.449 176.19 266.378 175.888Z" fill="#084FC7"/>
<path d="M333.78 183.396C334.1 183.218 334.474 183.183 334.847 183.307C335.524 183.556 335.879 184.304 335.648 184.98L331.716 196.065C331.467 196.741 330.719 197.097 330.043 196.866C329.367 196.617 329.011 195.869 329.242 195.193L333.175 184.108C333.282 183.805 333.513 183.556 333.78 183.396Z" fill="#084FC7"/>
<path d="M328.493 168.966L322.425 176.76C321.98 177.329 321.162 177.436 320.592 176.991C320.023 176.546 319.916 175.728 320.361 175.158L325.913 168.041C326.802 168.326 327.674 168.646 328.493 168.966Z" fill="#084FC7"/>
<path d="M269.117 276.493C269.242 276.867 269.562 277.133 269.918 277.205C270.096 277.24 270.292 277.24 270.47 277.169C270.665 277.098 289.687 270.941 309.687 279.233C319.847 283.45 328.886 285.052 336.199 284.909C336.235 284.482 336.271 284.091 336.306 283.699C336.306 283.646 336.324 283.593 336.324 283.557C336.324 283.557 336.733 283.29 337.445 282.792C330.256 283.148 321.057 281.617 310.505 277.258C289.74 268.646 270.594 274.874 269.794 275.141C269.242 275.336 268.939 275.941 269.117 276.493Z" fill="#084FC7"/>
<path d="M314.862 164.482C312.353 168.361 307.193 172.756 296.73 172.009C282.3 170.959 272.798 157.187 269.488 151.529C269.933 151.511 270.182 151.511 270.182 151.511L314.862 164.482Z" fill="#084FC7"/>
<path d="M299.526 190.034C299.953 190.123 300.38 190.176 300.807 190.212C304.793 190.532 308.031 189.375 310.415 186.777C317.355 179.197 314.508 161.902 314.383 161.172C314.277 160.585 313.725 160.194 313.156 160.301C312.568 160.407 312.177 160.959 312.284 161.528C312.319 161.706 315.077 178.521 308.85 185.336C306.91 187.454 304.33 188.361 301.003 188.094C287.017 186.973 271.341 151.439 271.18 151.083C270.949 150.55 270.309 150.3 269.775 150.532C269.241 150.763 268.992 151.404 269.223 151.938C269.828 153.414 284.704 187.027 299.526 190.034Z" fill="white"/>
<path d="M343.083 176.065C342.158 186.315 344.684 203.236 351.304 215.407C351.143 212.792 351.072 210.14 351.108 207.507C351.108 207.418 351.108 207.329 351.108 207.24C351.108 206.973 351.126 206.706 351.126 206.439C351.357 190.905 352.869 183.023 343.083 176.065Z" fill="#EA9B7A"/>
<path d="M260.859 194.108C255.735 213.895 236.98 229.766 224.169 224.82C224.009 223.717 223.866 222.596 223.706 221.492C223.6 220.763 223.493 220.051 223.368 219.322C222.55 213.948 221.589 208.556 220.503 203.325C215.753 180.514 219.098 156.581 242.212 153.752C243.884 153.538 245.539 153.361 247.158 153.183C258.706 158.111 266.767 171.332 260.859 194.108Z" fill="#EA9B7A"/>
<path d="M263.493 179.019L293.529 288.877L282.817 276.528C286.785 278.628 291.376 280.265 296.465 281.404C301.536 282.542 307.087 283.201 312.87 283.503C318.671 283.806 324.703 283.752 330.878 283.503C337.052 283.254 343.369 282.792 349.774 282.24H349.81C359.258 281.439 367.568 288.432 368.369 297.881C369.134 306.884 362.746 314.874 353.956 316.297C347.354 317.347 340.628 318.343 333.742 319.144C326.856 319.945 319.792 320.532 312.461 320.71C305.148 320.87 297.568 320.603 289.739 319.464C281.927 318.325 273.813 316.297 265.877 312.863C260.806 310.674 257.194 306.51 255.557 301.653L255.183 300.514L219.133 192.471C215.077 180.336 221.642 167.204 233.778 163.147C245.913 159.09 259.045 165.656 263.102 177.791C263.262 178.183 263.386 178.645 263.493 179.019Z" fill="#EA9B7A"/>
<path d="M276.946 285.373C276.643 285.373 276.341 285.212 276.181 284.928C275.931 284.501 276.092 283.967 276.519 283.718C276.803 283.558 283.369 279.857 290.238 279.323C290.736 279.287 291.163 279.643 291.198 280.141C291.234 280.639 290.878 281.067 290.38 281.102C283.921 281.6 277.462 285.23 277.408 285.266C277.248 285.337 277.088 285.373 276.946 285.373Z" fill="#D96C63"/>
<path d="M287.872 281.404C287.712 281.404 287.552 281.369 287.409 281.28C283.263 278.771 278.245 278.379 278.192 278.379C277.694 278.344 277.338 277.917 277.374 277.436C277.409 276.938 277.818 276.582 278.317 276.618C278.53 276.635 283.815 277.027 288.317 279.767C288.744 280.016 288.868 280.568 288.619 280.995C288.459 281.244 288.156 281.404 287.872 281.404Z" fill="#D96C63"/>
<path d="M314.651 223.503C327.943 226.19 333.761 212.454 333.814 212.311C334.046 211.76 333.779 211.137 333.227 210.923C332.676 210.692 332.053 210.959 331.839 211.511C331.626 212.027 326.608 223.753 315.078 221.422C302.96 218.966 280.362 195.14 280.149 194.891C279.74 194.464 279.063 194.446 278.636 194.856C278.209 195.265 278.192 195.941 278.601 196.368C279.526 197.347 301.893 220.906 314.651 223.503Z" fill="#084FC7"/>
<path d="M293.759 136.974C293.759 136.974 272.424 132.952 266.41 111.422C260.68 90.9239 265.093 80.2833 271.054 69.2157C275.538 60.8704 289.773 49.6071 309.72 53.6462C329.862 57.721 344.933 68.0769 347.157 84.6427C351.303 115.639 326.303 153.451 293.759 136.974Z" fill="#39393B"/>
<path d="M267.407 114.749C267.016 114.749 266.642 114.553 266.446 114.18C266.055 113.504 257.087 97.3648 264.542 76.1192C269.204 62.8451 278.368 56.9198 285.254 54.2686C292.692 51.4038 298.937 51.6885 299.204 51.6885C299.809 51.7241 300.29 52.2401 300.254 52.8629C300.219 53.4678 299.72 53.9483 299.098 53.9127C299.044 53.9127 292.977 53.6636 285.966 56.3682C276.642 59.9803 270.147 66.8665 266.642 76.8487C259.542 97.0979 268.297 112.916 268.386 113.077C268.688 113.61 268.51 114.287 267.976 114.589C267.781 114.696 267.603 114.749 267.407 114.749Z" fill="#FAAF3A"/>
<path d="M335.13 115.088C335.13 115.088 342.069 109.607 343.902 116.867C345.735 124.127 340.574 137.027 332.496 133.113L335.13 115.088Z" fill="#D96C63"/>
<path d="M328.352 128.433C324.9 129.572 321.858 132.632 321.075 136.422C319.936 142.081 323.601 147.597 329.242 148.753C334.9 149.892 340.416 146.226 341.573 140.586C342.427 136.351 340.594 132.187 337.231 129.892C336.11 129.109 334.811 128.557 333.388 128.273C333.352 128.273 333.317 128.255 333.281 128.255C333.085 128.967 333.156 129.536 333.566 129.981C334.705 130.283 335.737 130.799 336.644 131.476C339.26 133.468 340.665 136.831 339.971 140.266C339.011 145.034 334.331 148.13 329.562 147.17C324.793 146.209 321.697 141.529 322.658 136.76C323.37 133.29 325.932 130.835 329.153 130.052L328.352 128.433Z" fill="#FAAF3A"/>
<path d="M314.101 146.208L311.2 164.393C311.2 164.393 297.588 178.29 272.73 153.361C279.403 148.397 281.948 136.866 281.165 129.429C281.165 129.429 283.122 130.603 286.147 133.343C286.734 133.877 287.499 134.286 288.229 134.802C294.795 139.251 304.866 145.069 314.101 146.208Z" fill="#EA9B7A"/>
<path d="M314.102 146.208L312.732 154.82C305.277 151.493 292.092 144.393 286.148 133.325C286.789 133.788 287.501 134.268 288.23 134.784C294.796 139.25 304.867 145.069 314.102 146.208Z" fill="#39393B"/>
<path d="M341.856 110.71C341.464 112.632 341.109 114.465 340.735 116.208C340.343 118.095 339.97 119.874 339.596 121.547C336.838 134.127 334.578 140.87 330.913 143.397C312.354 156.155 282.158 130.319 281.18 129.482C281.162 129.465 281.162 129.465 281.162 129.465C281.144 127.988 281.144 126.511 281.162 125.07C281.393 112.828 283.475 101.831 286.785 91.671C288.439 80.5678 297.052 71.6709 308.137 69.9983C319.632 68.2724 328.279 74.9272 333.689 77.8631C341.856 82.3115 345.059 94.6781 341.856 110.71Z" fill="#EA9B7A"/>
<path d="M287.428 80.2472C287.428 80.2472 300.418 55.265 326.325 62.2401C352.233 69.2152 353.603 81.2437 354.066 87.2579C354.528 93.2722 340.649 82.6138 340.649 82.6138C340.649 82.6138 340.169 94.6423 335.542 90.9412C329.866 86.3861 323.532 76.5818 323.532 76.5818C323.532 76.5818 308.105 91.7419 293.443 87.6494C285.097 85.3362 287.428 80.2472 287.428 80.2472Z" fill="#39393B"/>
<path d="M319.243 135.212C315.88 135.212 313.567 132.881 313.46 132.756C313.104 132.383 313.104 131.795 313.478 131.44C313.851 131.084 314.421 131.084 314.777 131.457C314.901 131.582 317.57 134.233 321.093 133.023C321.574 132.863 322.108 133.112 322.268 133.593C322.428 134.073 322.179 134.607 321.698 134.767C320.844 135.087 320.026 135.212 319.243 135.212Z" fill="#D96C63"/>
<path d="M311.501 120.087C311.501 120.087 323.992 123.788 330.469 123.788C330.469 123.788 327.231 133.041 317.978 129.802C310.772 127.276 311.501 120.087 311.501 120.087Z" fill="white"/>
<path d="M334.688 94.0731C334.688 94.0731 331.45 93.735 331.966 96.8845C332.5 100.034 339.528 98.1122 343.016 104.411C343.016 104.411 346.379 97.8097 334.688 94.0731Z" fill="#39393B"/>
<path d="M320.256 91.1543C320.256 91.1543 323.37 92.1152 321.662 94.802C319.954 97.4889 314.224 92.9871 308.566 97.4355C308.566 97.4355 308.05 90.0511 320.256 91.1543Z" fill="#39393B"/>
<path d="M314.633 113.7C314.331 115.177 311.039 115.764 307.249 114.999C303.477 114.234 300.665 112.419 300.968 110.924C301.27 109.447 304.562 108.86 308.352 109.625C312.124 110.39 314.936 112.223 314.633 113.7Z" fill="#D96C63"/>
<path d="M351.503 114.678L341.414 112.952C341.361 113.379 341.254 113.806 341.165 114.216C341.147 114.287 341.129 114.358 341.094 114.429L351.254 116.155C351.663 116.226 352.055 115.941 352.126 115.532C352.197 115.141 351.93 114.749 351.503 114.678Z" fill="white"/>
<path d="M324.564 106.066C324.564 105.55 324.546 105.034 324.475 104.535C324.137 101.795 322.927 99.2685 321.076 97.3112C319.368 95.514 317.144 94.1973 314.564 93.6279C314.528 93.6101 314.475 93.6101 314.439 93.5923C308.531 92.3823 302.713 95.4784 300.311 100.745C300.097 101.208 299.919 101.671 299.759 102.151C299.617 102.578 299.51 103.023 299.403 103.468C298.727 106.777 299.386 110.051 301.04 112.72C301.61 113.628 302.286 114.464 303.051 115.194C304.724 116.813 306.841 117.987 309.279 118.486C313.389 119.34 317.428 118.094 320.329 115.496C322.286 113.752 323.727 111.368 324.297 108.61C324.297 108.592 324.297 108.592 324.297 108.575C324.475 107.738 324.564 106.902 324.564 106.066ZM309.599 117.009C309.528 116.991 309.475 116.991 309.421 116.973C306.236 116.261 303.656 114.233 302.144 111.582C300.845 109.286 300.329 106.546 300.898 103.77C301.023 103.201 301.183 102.649 301.378 102.115C301.396 102.08 301.414 102.044 301.414 102.009C302.998 97.8984 306.859 95.1048 311.201 94.8557C312.161 94.8023 313.14 94.8557 314.136 95.0692C316.272 95.514 318.122 96.5283 319.599 97.934C322.304 100.514 323.656 104.393 322.855 108.308C321.574 114.357 315.649 118.272 309.599 117.009Z" fill="white"/>
<path d="M347.178 100.87C346.84 100.692 346.484 100.531 346.111 100.371C345.684 100.193 345.239 100.051 344.794 99.9087C344.474 99.8197 344.171 99.7307 343.833 99.6773C343.228 99.5528 342.641 99.4816 342.054 99.446C341.342 99.3927 340.63 99.4105 339.936 99.4994C337.997 99.7129 336.164 100.354 334.545 101.368C332.765 102.471 331.253 104.019 330.221 105.887C329.936 106.368 329.705 106.866 329.491 107.364C329.474 107.4 329.474 107.418 329.456 107.453C329.189 108.129 328.975 108.841 328.815 109.571C327.801 114.482 329.776 119.322 333.495 122.204C334.705 123.147 336.093 123.877 337.623 124.322C337.854 124.393 338.086 124.464 338.335 124.499C338.459 124.535 338.566 124.553 338.691 124.588C339.919 124.838 341.146 124.909 342.338 124.802C342.534 124.784 342.73 124.766 342.908 124.749C343.424 124.677 343.94 124.588 344.456 124.446C345.399 124.197 346.324 123.841 347.178 123.396C350.435 121.688 352.926 118.592 353.726 114.713C354.883 109.019 352.054 103.432 347.178 100.87ZM352.232 114.393C352.178 114.642 352.125 114.873 352.054 115.104C351.965 115.443 351.858 115.763 351.734 116.101C350.844 118.467 349.207 120.389 347.143 121.653C346.395 122.115 345.577 122.489 344.723 122.774C344.189 122.951 343.655 123.076 343.086 123.165C342.926 123.201 342.766 123.218 342.605 123.236C341.431 123.378 340.203 123.343 338.975 123.094C338.869 123.076 338.744 123.04 338.637 123.023C338.566 123.005 338.495 122.987 338.442 122.969C336.645 122.507 335.043 121.617 333.744 120.425C333.548 120.247 333.37 120.069 333.193 119.891C330.719 117.329 329.509 113.61 330.274 109.855C330.452 109.019 330.719 108.201 331.057 107.453C332.178 104.998 334.136 103.094 336.502 101.973C337.961 101.279 339.58 100.905 341.253 100.905C341.52 100.905 341.787 100.923 342.072 100.941C342.552 100.976 343.032 101.047 343.513 101.136C343.869 101.208 344.207 101.297 344.545 101.403C345.008 101.546 345.452 101.724 345.897 101.919C346.235 102.08 346.573 102.257 346.911 102.435C350.951 104.802 353.228 109.553 352.232 114.393Z" fill="white"/>
<path d="M284.224 103.041C284.135 103.023 284.046 102.988 283.975 102.934C283.619 102.703 283.53 102.24 283.744 101.902C288.797 94.0018 300.95 101.101 301.057 101.173C301.413 101.386 301.537 101.849 301.324 102.205C301.11 102.561 300.648 102.685 300.292 102.472C300.185 102.4 289.277 96.0481 285.007 102.721C284.847 102.97 284.526 103.094 284.224 103.041Z" fill="white"/>
<path d="M330.023 107.792C329.827 107.757 329.667 107.632 329.542 107.472C327.923 104.981 324.471 106.102 324.436 106.102C324.044 106.226 323.617 106.013 323.493 105.621C323.368 105.23 323.581 104.803 323.973 104.678C325.557 104.145 329.026 103.878 330.823 106.653C331.055 107.009 330.948 107.472 330.592 107.685C330.414 107.792 330.219 107.828 330.023 107.792Z" fill="white"/>
<g opacity="0.8">
<g opacity="0.8">
<g opacity="0.8">
<g opacity="0.8">
<g opacity="0.8">
<g opacity="0.8">
<g opacity="0.8">
<path opacity="0.8" d="M340.737 116.208C340.346 118.094 339.972 119.873 339.598 121.546C336.164 120.71 333.691 119.019 333.975 117.614C334.278 116.226 337.232 115.621 340.737 116.208Z" fill="#D96C63"/>
</g>
</g>
</g>
</g>
</g>
</g>
</g>
<path d="M317.286 106.244C316.876 108.29 315.613 109.749 314.474 109.518C313.335 109.287 312.748 107.454 313.158 105.408C313.567 103.361 314.83 101.902 315.969 102.133C317.108 102.365 317.695 104.198 317.286 106.244Z" fill="#39393B"/>
<path d="M337.465 110.337C337.056 112.383 335.793 113.842 334.654 113.611C333.515 113.379 332.928 111.547 333.337 109.5C333.746 107.454 335.01 105.995 336.149 106.226C337.287 106.458 337.875 108.29 337.465 110.337Z" fill="#39393B"/>
<path d="M327.038 115.816C328.017 116.012 328.711 115.976 328.764 115.976C328.995 115.959 329.227 115.852 329.387 115.674C329.547 115.496 329.6 115.247 329.582 115.015L328.284 105.496C328.212 105.033 327.785 104.695 327.323 104.766C326.86 104.837 326.522 105.265 326.593 105.727L327.75 114.215C326.896 114.09 325.614 113.734 324.458 112.773C324.102 112.471 323.55 112.524 323.248 112.88C322.945 113.236 322.999 113.788 323.355 114.09C324.618 115.122 325.988 115.603 327.038 115.816Z" fill="#39393B"/>
<path d="M289.508 122.543C289.366 122.756 285.416 128.433 281.198 129.465C281.181 129.447 281.181 129.447 281.181 129.447C281.145 127.97 281.163 126.493 281.181 125.052C281.323 125.07 285.344 125.176 289.508 122.543Z" fill="#39393B"/>
<path d="M288.636 107.632C288.636 107.632 282.693 95.0341 274.988 102.419C268.636 108.522 274.188 128.878 285.22 124.518L288.636 107.632Z" fill="#EA9B7A"/>
<path d="M274.028 118.503C270.576 119.642 267.533 122.702 266.75 126.492C265.612 132.151 269.277 137.667 274.918 138.823C280.576 139.962 286.092 136.297 287.249 130.656C288.103 126.421 286.27 122.258 282.907 119.962C281.786 119.179 280.487 118.628 279.064 118.343C279.028 118.343 278.992 118.325 278.957 118.325C278.761 119.037 278.85 119.606 279.242 120.051C280.38 120.354 281.412 120.87 282.32 121.546C284.935 123.539 286.341 126.902 285.647 130.336C284.686 135.105 280.007 138.201 275.238 137.24C270.469 136.279 267.373 131.599 268.334 126.831C269.028 123.361 271.608 120.905 274.829 120.122L274.028 118.503Z" fill="#FAAF3A"/>
<path d="M284.759 121.013C284.795 121.013 284.813 121.031 284.848 121.031C285.311 121.066 285.738 120.728 285.774 120.248C286.645 110.728 279.457 105.906 279.154 105.71C278.763 105.443 278.229 105.568 277.962 105.959C277.695 106.351 277.82 106.885 278.211 107.152C278.478 107.329 284.848 111.636 284.065 120.105C284.048 120.532 284.35 120.924 284.759 121.013Z" fill="#39393B"/>
<path d="M277.961 114.34C278.138 114.375 278.352 114.357 278.53 114.251C279.384 113.806 281.893 112.809 283.263 113.468C283.69 113.681 284.206 113.503 284.402 113.076C284.615 112.649 284.437 112.133 284.01 111.937C281.626 110.781 278.138 112.542 277.747 112.738C277.32 112.952 277.16 113.468 277.391 113.895C277.498 114.126 277.729 114.286 277.961 114.34Z" fill="#39393B"/>
<path d="M296.287 86.2621C296.287 86.2621 288.298 107.953 287.871 112.33C287.284 118.291 279.401 97.8636 287.319 80.4258L296.287 86.2621Z" fill="#39393B"/>
<path d="M429.773 546.12H396.873C396.873 546.12 389.257 509.607 386.713 489.145C384.15 468.664 382.834 420.141 382.834 420.141C382.834 420.141 356.624 428.664 301.748 425.443C180.164 418.344 226.267 329.02 226.267 329.02C230.378 334.696 261.196 342.507 278.385 345.23C331.179 350.301 371.303 359.269 398.777 371.119C405.396 373.966 411.268 376.991 416.428 380.176C423.047 384.251 427.193 396.653 429.702 412.934C437.193 461.885 429.773 546.12 429.773 546.12Z" fill="#39393B"/>
<path d="M400.947 528.54C400.396 528.54 399.915 528.148 399.791 527.597C395.04 504.109 393.456 474.874 392.175 451.386C391.107 431.902 390.111 413.504 387.602 411.297C385.574 409.5 377.157 410.906 366.517 412.667C345.324 416.191 313.296 421.493 277.993 413.29C258.758 408.806 244.612 399.465 235.965 385.514C221.036 361.457 227.851 331.617 227.922 331.315C228.064 330.674 228.705 330.283 229.345 330.443C229.986 330.585 230.377 331.226 230.217 331.867C230.146 332.151 223.58 361.066 237.993 384.287C246.303 397.685 259.95 406.671 278.545 410.995C313.403 419.109 345.146 413.842 366.161 410.354C378.741 408.272 386.339 407.009 389.203 409.536C392.3 412.276 393.171 425.728 394.559 451.262C395.841 474.678 397.424 503.807 402.139 527.134C402.264 527.775 401.855 528.397 401.214 528.522C401.107 528.522 401.036 528.54 400.947 528.54Z" fill="#585859"/>
<path d="M430.395 529.144H430.377L393.794 528.361C393.135 528.343 392.619 527.81 392.637 527.151C392.655 526.493 393.189 525.977 393.847 525.995L430.431 526.778C431.089 526.795 431.605 527.329 431.587 527.987C431.552 528.646 431.036 529.144 430.395 529.144Z" fill="#585859"/>
<path d="M428.865 588.273H405.644L401.178 561.031L398.723 546.12H427.566L428.029 561.031L428.865 588.273Z" fill="#EA9B7A"/>
<path d="M428.867 588.273H405.646L402.318 567.989L401.18 561.031H428.03L428.244 568.238L428.867 588.273Z" fill="#FAAF3A"/>
<path d="M428.244 568.238L402.318 567.989L401.18 561.031H428.03L428.244 568.238Z" fill="#C77E2E"/>
<path d="M486.162 624.945H398.332C397.674 623.753 397.318 622.081 397.176 620.07C396.624 612.632 398.991 600.782 400.147 593.308C400.29 592.436 400.414 591.618 400.503 590.888C400.663 589.643 400.77 588.593 400.77 587.828C400.77 581.725 406.162 582.775 406.162 582.775C415.041 591.493 425.112 578.433 430.984 582.703C430.984 582.703 431.215 582.881 431.767 583.291C432.265 583.682 433.012 584.287 434.044 585.159C435.539 586.404 437.639 588.219 440.486 590.782C447.461 597.063 459.311 601.191 469.4 605.408C470.681 605.942 471.874 606.476 472.995 607.027C473.831 607.437 474.632 607.846 475.379 608.237C483.635 612.686 486.251 616.956 486.856 620.052C487.443 623.024 486.162 624.945 486.162 624.945Z" fill="#0875F7"/>
<path d="M475.396 608.255C473.136 610.052 468.101 613.665 464.062 613.665C463.884 613.665 463.706 613.665 463.528 613.647C460.681 613.415 450.218 608.273 441.695 603.593C436.82 600.906 432.353 598.273 429.15 596.156C423.901 592.686 422.976 591.369 422.78 590.444C422.015 586.974 427.745 584.572 431.766 583.309C432.264 583.7 433.012 584.305 434.044 585.177C429.061 586.529 424.951 588.664 425.147 589.874C425.645 590.906 430.841 594.857 443.261 601.672C452.745 606.867 461.731 611.049 463.724 611.227C466.428 611.44 470.396 608.985 472.994 607.045C473.866 607.437 474.649 607.846 475.396 608.255Z" fill="#084FC7"/>
<path d="M486.162 624.946H398.332C397.674 623.754 397.318 622.081 397.176 620.07H486.874C487.443 623.024 486.162 624.946 486.162 624.946Z" fill="#084FC7"/>
<path d="M407.301 624.946H404.686C407.284 621.974 409.721 617.401 409.401 610.889C408.974 602.205 403.778 596.369 400.148 593.309C400.291 592.437 400.415 591.618 400.504 590.889C404.401 593.86 410.967 600.39 411.483 610.782C411.803 617.01 409.757 621.654 407.301 624.946Z" fill="#084FC7"/>
<path d="M439.028 595.978C438.387 595.978 437.782 595.533 437.622 594.875C437.426 594.092 437.907 593.309 438.672 593.113L444.152 591.743C444.935 591.547 445.718 592.028 445.914 592.793C446.109 593.576 445.629 594.359 444.864 594.554L439.383 595.924C439.259 595.96 439.134 595.978 439.028 595.978Z" fill="white"/>
<path d="M433.563 591.405C432.904 591.405 432.317 590.96 432.157 590.301C431.961 589.518 432.442 588.736 433.207 588.54L438.687 587.17C439.47 586.974 440.253 587.454 440.449 588.22C440.645 589.002 440.164 589.785 439.399 589.981L433.919 591.351C433.794 591.387 433.687 591.405 433.563 591.405Z" fill="white"/>
<path d="M444.508 599.162C443.867 599.162 443.262 598.717 443.102 598.059C442.907 597.276 443.387 596.493 444.152 596.315L449.633 594.945C450.416 594.749 451.198 595.23 451.394 595.995C451.59 596.778 451.109 597.561 450.344 597.757L444.864 599.127C444.739 599.144 444.615 599.162 444.508 599.162Z" fill="white"/>
<path d="M449.989 602.223C449.348 602.223 448.743 601.778 448.583 601.12C448.387 600.337 448.868 599.554 449.633 599.376L455.113 598.006C455.896 597.81 456.679 598.29 456.875 599.055C457.07 599.838 456.59 600.621 455.825 600.817L450.344 602.187C450.22 602.205 450.113 602.223 449.989 602.223Z" fill="white"/>
<path d="M455.965 605.052C455.325 605.052 454.72 604.607 454.559 603.949C454.364 603.166 454.844 602.383 455.609 602.205L461.09 600.835C461.873 600.639 462.656 601.119 462.851 601.885C463.047 602.668 462.567 603.45 461.801 603.646L456.321 605.016C456.196 605.052 456.09 605.052 455.965 605.052Z" fill="white"/>
<path d="M462.461 607.472C461.803 607.472 461.216 607.027 461.055 606.369C460.86 605.586 461.34 604.803 462.105 604.607L467.586 603.237C468.369 603.041 469.152 603.522 469.347 604.287C469.543 605.07 469.063 605.853 468.297 606.048L462.817 607.419C462.692 607.454 462.568 607.472 462.461 607.472Z" fill="white"/>
<path d="M550.947 327.703V334.999C550.947 339.198 548.421 342.597 545.289 342.597H151.213C148.081 342.597 145.555 339.198 145.555 334.999V327.703C145.555 323.504 148.081 320.105 151.213 320.105H545.271C548.403 320.105 550.947 323.504 550.947 327.703Z" fill="#21B573"/>
<path d="M550.947 330.017H145.555V333.362H550.947V330.017Z" fill="#217C58"/>
<path d="M539.097 361.334H168.687C167.032 361.334 165.68 359.981 165.68 358.327V342.49H542.104V358.327C542.104 359.981 540.752 361.334 539.097 361.334Z" fill="#217C58"/>
<path d="M522.46 454.287H191.195V467.205H522.46V454.287Z" fill="#217C58"/>
<path d="M167.316 627.241L231.444 361.333H208.917L144.789 627.241H167.316Z" fill="#21B573"/>
<path d="M545.912 627.241L481.766 361.333H504.292L568.421 627.241H545.912Z" fill="#21B573"/>
<path d="M181.518 258.994L174.57 260.059L182.601 312.491L189.549 311.427L181.518 258.994Z" fill="#FAAF3A"/>
<path d="M181.533 258.967L174.594 260.034L176.124 254.732L176.907 251.974L178.491 254.358L181.533 258.967Z" fill="#EA9B7A"/>
<path d="M188.959 307.611L182.012 308.675L182.596 312.492L189.544 311.427L188.959 307.611Z" fill="#39393B"/>
<path d="M189.575 314.501L183.542 315.426C183.293 315.461 183.044 315.284 183.009 315.034L182.617 312.454L189.575 311.387L189.966 313.967C190.002 314.234 189.824 314.465 189.575 314.501Z" fill="#DF615C"/>
<path d="M178.492 254.358L176.125 254.732L176.908 251.974L178.492 254.358Z" fill="#39393B"/>
<path d="M188.565 304.87L181.617 305.935L182.035 308.661L188.982 307.597L188.565 304.87Z" fill="#C77E2E"/>
<path d="M176.711 262.348L182.654 301.173C182.708 301.476 182.975 301.672 183.259 301.618C183.544 301.565 183.758 301.298 183.704 301.013L177.761 262.187C177.708 261.903 177.441 261.689 177.156 261.743C176.871 261.778 176.658 262.063 176.711 262.348Z" fill="#C77E2E"/>
<path d="M179.434 261.938L185.377 300.764C185.43 301.049 185.697 301.262 185.982 301.209C186.285 301.156 186.48 300.889 186.427 300.604L180.484 261.778C180.43 261.494 180.164 261.28 179.879 261.333C179.594 261.369 179.381 261.636 179.434 261.938Z" fill="#C77E2E"/>
<path d="M194.118 259.206L187.09 259.229L187.264 312.272L194.293 312.249L194.118 259.206Z" fill="#21B573"/>
<path d="M194.114 259.215L187.086 259.233L189.381 254.215L190.573 251.6L191.783 254.197L194.114 259.215Z" fill="#EA9B7A"/>
<path d="M194.271 308.406L187.242 308.429L187.255 312.29L194.283 312.267L194.271 308.406Z" fill="#39393B"/>
<path d="M193.831 315.318L187.728 315.336C187.461 315.336 187.266 315.123 187.266 314.873V312.276L194.294 312.258V314.856C194.294 315.105 194.098 315.318 193.831 315.318Z" fill="#DF615C"/>
<path d="M191.785 254.197L189.383 254.215L190.575 251.6L191.785 254.197Z" fill="#39393B"/>
<path d="M194.251 305.63L187.223 305.653L187.232 308.411L194.26 308.388L194.251 305.63Z" fill="#217C58"/>
<path d="M188.828 261.849L188.953 301.12C188.953 301.422 189.202 301.654 189.486 301.654C189.789 301.654 190.02 301.404 190.02 301.12L189.896 261.849C189.896 261.547 189.647 261.315 189.362 261.315C189.077 261.298 188.828 261.547 188.828 261.849Z" fill="#217C58"/>
<path d="M191.586 261.831L191.71 301.101C191.71 301.404 191.96 301.635 192.244 301.635C192.547 301.635 192.778 301.386 192.778 301.101L192.654 261.831C192.654 261.528 192.404 261.297 192.12 261.297C191.835 261.297 191.586 261.528 191.586 261.831Z" fill="#217C58"/>
<path d="M199.298 258.942L191.84 311.46L198.799 312.448L206.257 259.93L199.298 258.942Z" fill="#0875F7"/>
<path d="M206.246 259.963L199.289 258.966L202.278 254.322L203.844 251.92L204.663 254.66L206.246 259.963Z" fill="#EA9B7A"/>
<path d="M199.357 308.674L192.398 307.686L191.856 311.509L198.814 312.497L199.357 308.674Z" fill="#39393B"/>
<path d="M197.901 315.444L191.869 314.589C191.62 314.554 191.442 314.323 191.477 314.056L191.851 311.476L198.808 312.472L198.434 315.052C198.381 315.301 198.15 315.479 197.901 315.444Z" fill="#DF615C"/>
<path d="M204.662 254.66L202.277 254.322L203.843 251.92L204.662 254.66Z" fill="#39393B"/>
<path d="M192.775 304.925L192.387 307.655L199.346 308.644L199.734 305.913L192.775 304.925Z" fill="#084FC7"/>
<path d="M200.641 261.796L195.125 300.675C195.09 300.977 195.285 301.244 195.588 301.28C195.89 301.315 196.157 301.12 196.193 300.817L201.709 261.938C201.745 261.635 201.549 261.369 201.246 261.333C200.962 261.297 200.695 261.511 200.641 261.796Z" fill="#084FC7"/>
<path d="M203.38 262.188L197.864 301.067C197.828 301.369 198.024 301.636 198.326 301.672C198.629 301.707 198.896 301.511 198.931 301.209L204.447 262.33C204.483 262.027 204.287 261.76 203.985 261.725C203.682 261.689 203.415 261.885 203.38 262.188Z" fill="#084FC7"/>
<path d="M208.544 280.194L208.17 283.041L207.832 285.621L207.334 289.536L206.996 292.098L206.497 296.048L206.159 298.575L205.643 302.561L205.323 305.052L204.807 309.073L204.487 311.529L203.971 315.586L203.65 318.006L203.384 320.106H175.732L175.465 318.006L175.145 315.586L174.629 311.529L174.309 309.073L173.793 305.052L173.472 302.561L172.956 298.575L172.636 296.048L172.12 292.098L171.8 289.536L171.284 285.621L170.946 283.041L170.59 280.194H208.544Z" fill="#DF615C"/>
<path d="M208.17 283.041L207.832 285.621H171.283L170.945 283.041H208.17Z" fill="#B11722"/>
<path d="M207.335 289.536L206.997 292.098H172.121L171.801 289.536H207.335Z" fill="#B11722"/>
<path d="M206.498 296.049L206.16 298.576H172.957L172.637 296.049H206.498Z" fill="#B11722"/>
<path d="M205.644 302.561L205.323 305.052H173.793L173.473 302.561H205.644Z" fill="#B11722"/>
<path d="M204.807 309.073L204.487 311.529H174.629L174.309 309.073H204.807Z" fill="#B11722"/>
<path d="M203.97 315.586L203.65 318.006H175.465L175.145 315.586H203.97Z" fill="#B11722"/>
<path d="M548.651 179.09L525.075 278.806L524.452 281.421L522.868 288.129C522.174 291.048 519.594 293.094 516.605 293.094H357.761C353.597 293.094 350.537 289.215 351.498 285.176L377.281 176.119C377.975 173.218 380.555 171.172 383.544 171.172H542.37C546.534 171.172 549.594 175.051 548.651 179.09Z" fill="#39393B"/>
<path d="M525.058 278.788L524.453 281.422H359.523V278.788H525.058Z" fill="#585859"/>
<path d="M421.767 195.835C420.45 202.899 413.653 208.628 406.589 208.628C399.525 208.628 394.863 202.899 396.18 195.835C397.496 188.771 404.293 183.041 411.358 183.041C418.439 183.041 423.084 188.771 421.767 195.835Z" fill="#FAAF3A"/>
<path d="M407.317 193.397C407.05 194.803 406.338 195.96 405.733 195.96C405.11 195.96 404.825 194.821 405.092 193.397C405.359 191.992 406.071 190.835 406.676 190.835C407.299 190.835 407.583 191.974 407.317 193.397Z" fill="#39393B"/>
<path d="M413.99 193.397C413.723 194.803 413.011 195.96 412.406 195.96C411.801 195.96 411.499 194.821 411.766 193.397C412.032 191.992 412.744 190.835 413.349 190.835C413.972 190.835 414.257 191.974 413.99 193.397Z" fill="#39393B"/>
<path d="M407.922 202.08C402.424 202.08 402.192 196.582 402.192 196.528C402.175 196.226 402.424 195.923 402.744 195.87C403.064 195.799 403.313 195.995 403.331 196.297C403.331 196.493 403.545 200.977 408.153 200.977C412.744 200.977 414.63 196.493 414.719 196.297C414.844 195.995 415.182 195.817 415.466 195.87C415.751 195.941 415.893 196.226 415.769 196.528C415.715 196.564 413.42 202.08 407.922 202.08Z" fill="#39393B"/>
<path d="M495.197 255.585C495.34 262.205 506.55 270.497 506.55 270.497C506.55 270.497 519.575 262.205 521.158 255.585C522.867 248.415 514.682 246.208 508.614 251.617C503.721 246.208 495.037 248.415 495.197 255.585Z" fill="#DF615C"/>
<path d="M471.461 236.386C470.696 243.254 464.521 248.806 457.671 248.806C450.82 248.806 445.856 243.236 446.621 236.386C447.386 229.517 453.56 223.966 460.411 223.966C467.279 223.966 472.226 229.535 471.461 236.386Z" fill="#585859"/>
<path d="M389.843 171.172L362.388 293.094H357.761C353.597 293.094 350.537 289.215 351.498 285.176L377.281 176.119C377.975 173.218 380.555 171.154 383.544 171.154H389.843V171.172Z" fill="#585859"/>
<path d="M435.842 293.095L431.02 320.194H446.945L451.767 293.095H435.842Z" fill="white"/>
<path d="M407.208 315.532L410.464 310.959C411.621 309.322 413.507 308.361 415.518 308.361H459.148C461.461 308.361 463.578 309.642 464.646 311.689L466.835 315.888C467.867 317.845 466.443 320.212 464.219 320.212H409.61C407.208 320.194 405.82 317.472 407.208 315.532Z" fill="white"/>
<path d="M316.301 320.176H447.369L448.792 315.229C449.682 312.116 447.351 309.02 444.113 309.02H323.169C320.998 309.02 319.094 310.461 318.489 312.543L316.301 320.176Z" fill="white"/>
<path d="M488.152 138.611L430.18 138.575C427.938 138.575 426.105 136.742 426.105 134.5L426.123 98.8775C426.123 96.6355 427.956 94.8027 430.198 94.8027L488.17 94.8383C490.412 94.8383 492.244 96.6711 492.244 98.9131L492.227 134.536C492.227 136.796 490.412 138.611 488.152 138.611Z" fill="#DF615C"/>
<path d="M484.699 132.045L479.415 152.009L470.18 133.237L484.699 132.045Z" fill="#DF615C"/>
<path d="M473.826 113.486C472.652 120.959 458.684 130.319 458.684 130.319C458.684 130.319 445.25 120.942 444.485 113.451C443.648 105.337 453.257 102.863 459.289 108.984C465.641 102.881 475.108 105.372 473.826 113.486Z" fill="white"/>
<path d="M529.231 604.686C583.752 604.686 627.95 600.321 627.95 594.936C627.95 589.55 583.752 585.185 529.231 585.185C474.71 585.185 430.512 589.55 430.512 594.936C430.512 600.321 474.71 604.686 529.231 604.686Z" fill="#CED3E6"/>
<path d="M589.677 524.42H465.05C462.683 524.42 460.762 522.498 460.762 520.132V518.156C460.762 515.79 462.683 513.868 465.05 513.868H589.677C592.043 513.868 593.965 515.79 593.965 518.156V520.132C593.965 522.498 592.043 524.42 589.677 524.42Z" fill="#39393B"/>
<path d="M466.615 396.981H588.377C590.405 396.981 592.042 398.618 592.042 400.647V415.611C592.042 417.64 590.405 419.277 588.377 419.277H466.615C464.586 419.277 462.949 417.64 462.949 415.611V400.647C462.949 398.618 464.586 396.981 466.615 396.981Z" fill="#585859"/>
<path d="M495.371 302.141C495.371 302.141 444.036 291.999 429.712 256.18C415.388 220.361 467.773 193.493 495.371 212.728C524.908 233.297 495.371 302.141 495.371 302.141Z" fill="#21B573"/>
<path d="M525.906 396.251C525.461 396.251 525.052 395.913 524.981 395.451C520.07 362.177 500.23 314.312 484.482 280.023C467.383 242.835 451.262 213.155 451.102 212.852C450.852 212.407 451.03 211.838 451.475 211.589C451.92 211.34 452.489 211.518 452.739 211.963C452.899 212.265 469.055 241.998 486.191 279.24C502.009 313.653 521.903 361.696 526.849 395.184C526.92 395.7 526.582 396.162 526.066 396.234C525.995 396.234 525.942 396.251 525.906 396.251Z" fill="#39393B"/>
<path d="M493.45 298.671C493.112 298.671 492.792 298.493 492.631 298.191C470.3 256.607 434.037 226.429 433.681 226.126C433.29 225.806 433.236 225.219 433.556 224.827C433.877 224.436 434.464 224.383 434.855 224.703C435.229 225.005 471.759 255.397 494.268 297.319C494.517 297.764 494.339 298.333 493.895 298.582C493.734 298.636 493.592 298.671 493.45 298.671Z" fill="#39393B"/>
<path d="M494.462 301.66C494.195 301.66 493.946 301.553 493.75 301.34C477.469 282.176 460.778 270.254 449.657 263.635C437.593 256.464 429.284 253.778 429.212 253.76C428.732 253.6 428.447 253.084 428.607 252.585C428.767 252.105 429.284 251.82 429.782 251.98C430.12 252.087 438.34 254.721 450.565 261.998C461.828 268.689 478.714 280.753 495.173 300.13C495.511 300.521 495.458 301.109 495.067 301.447C494.889 301.589 494.657 301.66 494.462 301.66Z" fill="#39393B"/>
<path d="M489.944 290.753C489.553 290.753 489.197 290.504 489.072 290.13C476.545 253.387 481.154 208.742 481.207 208.297C481.261 207.781 481.723 207.426 482.221 207.479C482.737 207.532 483.093 207.995 483.04 208.493C482.987 208.938 478.431 253.191 490.816 289.525C490.976 290.006 490.727 290.54 490.229 290.7C490.14 290.735 490.033 290.753 489.944 290.753Z" fill="#39393B"/>
<path d="M493.093 298.03C492.648 298.03 492.257 297.71 492.186 297.247C488.36 273.991 491.296 255.023 494.445 243.208C497.862 230.379 502.132 223.155 502.31 222.852C502.577 222.407 503.147 222.265 503.591 222.532C504.036 222.799 504.179 223.368 503.912 223.813C503.876 223.884 499.57 231.162 496.225 243.778C493.147 255.397 490.264 274.08 494.018 296.963C494.107 297.461 493.752 297.941 493.253 298.03C493.182 298.013 493.129 298.03 493.093 298.03Z" fill="#39393B"/>
<path d="M549.516 311.501C549.516 311.501 601.367 304.401 617.791 269.508C634.214 234.597 583.502 204.686 554.819 222.248C524.107 241.038 549.516 311.501 549.516 311.501Z" fill="#21B573"/>
<path d="M529.856 393.209C529.34 393.209 528.912 392.782 528.93 392.266C529.126 375.131 532.863 355.612 540.033 334.259C545.763 317.195 553.663 298.921 563.557 279.953C580.372 247.658 597.311 224.188 597.489 223.956C597.792 223.547 598.379 223.44 598.788 223.743C599.197 224.045 599.304 224.633 599.002 225.042C598.841 225.273 581.973 248.654 565.211 280.825C549.767 310.487 531.261 353.886 530.816 392.284C530.781 392.8 530.372 393.209 529.856 393.209Z" fill="#39393B"/>
<path d="M551.708 308.157C551.547 308.157 551.369 308.121 551.227 308.014C550.782 307.747 550.658 307.178 550.925 306.733C575.871 266.217 614.145 238.032 614.537 237.747C614.946 237.445 615.533 237.533 615.836 237.943C616.138 238.352 616.049 238.939 615.64 239.242C615.266 239.526 577.277 267.498 552.526 307.694C552.33 307.996 552.028 308.157 551.708 308.157Z" fill="#39393B"/>
<path d="M550.514 311.075C550.283 311.075 550.052 310.986 549.874 310.825C549.5 310.47 549.482 309.882 549.838 309.509C567.436 291.128 584.998 280.096 596.635 274.082C609.269 267.551 617.614 265.398 617.97 265.309C618.468 265.185 618.966 265.487 619.091 265.985C619.216 266.484 618.913 266.982 618.415 267.106C618.326 267.124 609.874 269.313 597.418 275.754C585.924 281.697 568.575 292.622 551.173 310.79C551.013 310.968 550.763 311.075 550.514 311.075Z" fill="#39393B"/>
<path d="M555.674 300.452C555.55 300.452 555.443 300.434 555.319 300.381C554.838 300.185 554.624 299.651 554.802 299.171C569.322 263.619 567.383 219.188 567.365 218.744C567.347 218.227 567.739 217.8 568.255 217.765C568.753 217.729 569.198 218.139 569.233 218.655C569.251 219.099 571.208 263.939 556.546 299.883C556.386 300.238 556.048 300.452 555.674 300.452Z" fill="#39393B"/>
<path d="M552.099 307.534C552.028 307.534 551.957 307.534 551.886 307.516C551.388 307.409 551.067 306.911 551.192 306.413C556.316 283.779 554.537 264.971 552.153 253.192C549.555 240.416 545.711 232.889 545.676 232.8C545.444 232.338 545.622 231.786 546.067 231.555C546.53 231.323 547.081 231.501 547.313 231.946C547.473 232.249 551.298 239.722 553.95 252.747C556.387 264.74 558.202 283.85 553.007 306.822C552.918 307.231 552.526 307.534 552.099 307.534Z" fill="#39393B"/>
<path d="M529.552 243.956C529.552 243.956 485.62 215.522 485.566 176.945C485.513 138.368 544.125 132.817 562.649 160.895C582.488 190.949 529.552 243.956 529.552 243.956Z" fill="#21B573"/>
<path d="M523.415 342.729C523.344 342.729 523.273 342.729 523.202 342.711C522.704 342.587 522.401 342.088 522.508 341.59C530.266 308.868 529.572 257.053 527.632 219.366C525.533 178.494 521.529 144.935 521.494 144.614C521.44 144.098 521.796 143.636 522.312 143.582C522.81 143.529 523.291 143.885 523.344 144.401C523.38 144.739 527.383 178.351 529.501 219.277C531.458 257.088 532.134 309.081 524.341 342.017C524.216 342.444 523.842 342.729 523.415 342.729Z" fill="#39393B"/>
<path d="M529.394 240.094C528.931 240.094 528.522 239.738 528.469 239.276C523.131 192.372 500.622 150.913 500.39 150.503C500.141 150.058 500.301 149.489 500.764 149.24C501.209 148.991 501.778 149.151 502.027 149.614C502.259 150.023 524.946 191.802 530.319 239.08C530.373 239.596 530.017 240.059 529.501 240.112C529.465 240.094 529.43 240.094 529.394 240.094Z" fill="#39393B"/>
<path d="M529.231 243.226C528.84 243.226 528.484 242.977 528.359 242.586C520.334 218.742 509.249 201.5 501.366 191.233C492.825 180.094 486.099 174.543 486.028 174.489C485.637 174.169 485.566 173.582 485.904 173.19C486.224 172.799 486.811 172.728 487.203 173.066C487.487 173.297 494.124 178.778 502.79 190.059C510.779 200.45 521.989 217.888 530.103 241.998C530.263 242.479 530.014 243.013 529.516 243.173C529.427 243.208 529.338 243.226 529.231 243.226Z" fill="#39393B"/>
<path d="M529.072 231.429C529.054 231.429 529.036 231.429 529.019 231.429C528.503 231.411 528.111 230.966 528.147 230.45C530.122 191.696 550.94 151.927 551.136 151.518C551.385 151.055 551.937 150.895 552.4 151.126C552.862 151.358 553.022 151.927 552.791 152.39C552.578 152.781 531.955 192.194 530.015 230.539C529.98 231.038 529.57 231.429 529.072 231.429Z" fill="#39393B"/>
<path d="M529.303 239.348C529.232 239.348 529.178 239.347 529.107 239.33C528.609 239.223 528.289 238.725 528.396 238.226C533.449 215.202 543.235 198.547 550.566 188.618C558.52 177.835 565.175 172.586 565.46 172.372C565.869 172.052 566.456 172.123 566.759 172.532C567.079 172.942 567.008 173.529 566.598 173.831C566.527 173.885 559.819 179.187 552.008 189.774C544.801 199.543 535.175 215.949 530.211 238.618C530.122 239.063 529.73 239.348 529.303 239.348Z" fill="#39393B"/>
<path d="M583.237 337.747L581.706 341.804L580.745 344.384L577.97 351.75L576.991 354.33L574.144 361.91L573.183 364.473L560.941 396.964H494.073L481.831 364.473L480.87 361.91L478.023 354.33L477.044 351.75L474.268 344.384L473.307 341.804L471.777 337.747C470.727 334.953 472.791 331.981 475.763 331.981H579.268C582.222 331.981 584.286 334.953 583.237 337.747Z" fill="#0875F7"/>
<path d="M581.706 341.803L580.745 344.383H474.268L473.289 341.803H581.706Z" fill="#084FC7"/>
<path d="M577.951 351.749L576.99 354.329H478.004L477.043 351.749H577.951Z" fill="#084FC7"/>
<path d="M574.128 361.909L573.167 364.471H481.832L480.871 361.909H574.128Z" fill="#084FC7"/>
<path d="M509.589 419.259L505.888 431.216L454.269 597.587H444.18L476.902 434.615L479.998 419.259H509.589Z" fill="#39393B"/>
<path d="M611.116 597.587H601.028L547.896 426.287L545.707 419.259H575.298L576.045 422.995L611.116 597.587Z" fill="#39393B"/>
<path d="M589.677 501.483H465.05C462.683 501.483 460.762 499.562 460.762 497.195V495.22C460.762 492.853 462.683 490.932 465.05 490.932H589.659C592.025 490.932 593.947 492.853 593.947 495.22V497.195C593.965 499.562 592.043 501.483 589.677 501.483Z" fill="#585859"/>
<path d="M432.702 101.495C459.353 101.495 480.958 80.1609 480.958 53.8438C480.958 27.5266 459.353 6.19238 432.702 6.19238C406.05 6.19238 384.445 27.5266 384.445 53.8438C384.445 80.1609 406.05 101.495 432.702 101.495Z" fill="#CED3E6"/>
<path d="M432.702 95.3027C459.353 95.3027 480.958 73.9685 480.958 47.6514C480.958 21.3342 459.353 0 432.702 0C406.05 0 384.445 21.3342 384.445 47.6514C384.445 73.9685 406.05 95.3027 432.702 95.3027Z" fill="#0875F7"/>
<path d="M432.702 86.3886C454.361 86.3886 471.919 69.0455 471.919 47.6518C471.919 26.2581 454.361 8.91504 432.702 8.91504C411.043 8.91504 393.484 26.2581 393.484 47.6518C393.484 69.0455 411.043 86.3886 432.702 86.3886Z" fill="white"/>
<path d="M471.919 47.6518C471.919 48.6838 471.884 49.6981 471.795 50.7123C470.211 30.7834 453.271 15.0361 432.684 15.0361C412.097 15.0361 395.175 30.7834 393.574 50.7123C393.503 49.6981 393.449 48.6838 393.449 47.6518C393.449 26.2816 411.047 8.91504 432.666 8.91504C454.321 8.91504 471.919 26.2816 471.919 47.6518Z" fill="#CED3E6"/>
<path d="M432.703 51.6729C432.4 51.6729 432.098 51.5306 431.92 51.2815L412.685 25.6942C412.364 25.2672 412.453 24.6622 412.88 24.3419C413.307 24.0216 413.93 24.1106 414.251 24.5376L433.023 49.5021L454.357 40.2494C454.856 40.0359 455.425 40.2494 455.656 40.7476C455.87 41.2459 455.656 41.8153 455.158 42.0288L433.112 51.584C432.969 51.6551 432.827 51.6729 432.703 51.6729Z" fill="#39393B"/>
<path d="M590.687 495.688C590.687 498.361 588.516 500.532 585.844 500.532C583.171 500.532 581 498.361 581 495.688C581 493.016 583.171 490.845 585.844 490.845C588.516 490.845 590.687 493.01 590.687 495.688Z" stroke="#4D2C5E" stroke-opacity="0.1" stroke-width="2" stroke-miterlimit="10" stroke-linecap="round" stroke-linejoin="round"/>
<path d="M637.68 537.696C640.355 537.696 642.523 535.527 642.523 532.852C642.523 530.177 640.355 528.009 637.68 528.009C635.005 528.009 632.836 530.177 632.836 532.852C632.836 535.527 635.005 537.696 637.68 537.696Z" stroke="#4D2C5E" stroke-opacity="0.1" stroke-width="2" stroke-miterlimit="10" stroke-linecap="round" stroke-linejoin="round"/>
<path d="M619.445 522.894C625.15 522.894 629.775 518.27 629.775 512.564C629.775 506.859 625.15 502.234 619.445 502.234C613.74 502.234 609.115 506.859 609.115 512.564C609.115 518.27 613.74 522.894 619.445 522.894Z" stroke="#4D2C5E" stroke-opacity="0.1" stroke-width="2" stroke-miterlimit="10" stroke-linecap="round" stroke-linejoin="round"/>
<path d="M637.442 512.565L633.997 518.587L632.17 525.291L625.471 527.113L619.444 530.563L613.416 527.113L606.712 525.291L604.89 518.587L601.439 512.565L604.89 506.537L606.712 499.833L613.416 498.011L619.444 494.561L625.471 498.011L632.17 499.833L633.997 506.537L637.442 512.565Z" stroke="#4D2C5E" stroke-opacity="0.1" stroke-width="2" stroke-miterlimit="10" stroke-linecap="round" stroke-linejoin="round"/>
<path d="M632.836 532.853C632.836 530.18 635.007 528.009 637.68 528.009C639.123 528.009 640.42 528.646 641.306 529.65C644.993 524.936 647.198 519.01 647.198 512.559C647.198 497.227 634.77 484.8 619.439 484.8C604.107 484.8 591.68 497.227 591.68 512.559C591.68 527.89 604.107 540.318 619.439 540.318C624.829 540.318 629.853 538.779 634.111 536.123C633.327 535.26 632.836 534.116 632.836 532.853Z" stroke="#4D2C5E" stroke-opacity="0.1" stroke-width="2" stroke-miterlimit="10" stroke-linecap="round" stroke-linejoin="round"/>
<path d="M619.444 475C606.492 475 595.068 481.558 588.319 491.533C589.734 492.378 590.687 493.923 590.687 495.694C590.687 498.367 588.516 500.538 585.843 500.538C585.183 500.538 584.558 500.402 583.988 500.165C582.629 504.05 581.885 508.217 581.885 512.565C581.885 533.309 598.705 550.13 619.45 550.13C640.194 550.13 657.014 533.309 657.014 512.565C657.014 491.82 640.189 475 619.444 475Z" stroke="#4D2C5E" stroke-opacity="0.1" stroke-width="2" stroke-miterlimit="10" stroke-linecap="round" stroke-linejoin="round"/>
<path d="M190.84 80.2254L167.534 72.3099C165.071 71.4757 163.756 68.7994 164.591 66.3366C165.425 63.8739 168.101 62.5591 170.557 63.3933L193.863 71.3088C196.326 72.1431 197.641 74.8194 196.807 77.2755C195.972 79.7449 193.303 81.0664 190.84 80.2254Z" stroke="#4D2C5E" stroke-opacity="0.1" stroke-width="3" stroke-miterlimit="10"/>
<path d="M187.777 89.2491L164.471 81.3336C162.009 80.4993 160.694 77.823 161.528 75.3669C162.362 72.9042 165.039 71.5893 167.501 72.4236L190.807 80.3325C193.27 81.1667 194.585 83.843 193.751 86.3058C192.91 88.7685 190.24 90.0833 187.777 89.2491Z" stroke="#4D2C5E" stroke-opacity="0.1" stroke-width="3" stroke-miterlimit="10"/>
<path d="M167.06 39.0531C167.087 39.1331 167.107 39.2066 167.133 39.2867C167.654 40.9485 170.724 51.4802 169.443 63.1666L194.444 71.4158C200.37 61.2645 209.107 54.6371 210.515 53.6093C210.582 53.5626 210.649 53.5159 210.709 53.4692C211.389 52.9819 212.05 52.4613 212.691 51.9074C216.455 48.6571 219.418 44.379 221.087 39.32C226.006 24.4234 217.917 8.35885 203.02 3.44004C188.123 -1.47878 172.059 6.61024 167.14 21.5068C165.465 26.5725 165.298 31.7716 166.393 36.6237C166.579 37.438 166.8 38.2522 167.06 39.0531Z" stroke="#4D2C5E" stroke-opacity="0.1" stroke-width="3" stroke-miterlimit="10"/>
<path d="M165.744 81.8809C165.464 86.8197 168.507 91.5249 173.433 93.1534C178.292 94.7552 183.464 92.8531 186.214 88.8286L165.744 81.8809Z" stroke="#4D2C5E" stroke-opacity="0.1" stroke-width="3" stroke-miterlimit="10"/>
<path d="M177.273 65.6158L184.701 43.104C185.435 40.8882 184.227 38.4989 182.011 37.7647C179.795 37.0306 177.406 38.2386 176.672 40.4544C175.938 42.6702 177.146 45.0595 179.362 45.7937L188.278 48.737" stroke="#4D2C5E" stroke-opacity="0.1" stroke-width="3" stroke-miterlimit="10"/>
<path d="M187.07 68.8533L194.499 46.3415C195.233 44.1257 197.622 42.9243 199.838 43.6518C202.054 44.386 203.255 46.7753 202.528 48.9911C201.793 51.2069 199.404 52.4083 197.188 51.6808L188.272 48.7375" stroke="#4D2C5E" stroke-opacity="0.1" stroke-width="3" stroke-miterlimit="10"/>
<path d="M226.367 47.0752L233.896 49.5646" stroke="#4D2C5E" stroke-opacity="0.1" stroke-width="3" stroke-miterlimit="10" stroke-linecap="round"/>
<path d="M229.816 37.5914L237.658 36.4102" stroke="#4D2C5E" stroke-opacity="0.1" stroke-width="3" stroke-miterlimit="10" stroke-linecap="round"/>
<path d="M221.102 55.2109L226.694 60.8305" stroke="#4D2C5E" stroke-opacity="0.1" stroke-width="3" stroke-miterlimit="10" stroke-linecap="round"/>
<path d="M156.442 23.9964L148.914 21.5137" stroke="#4D2C5E" stroke-opacity="0.1" stroke-width="3" stroke-miterlimit="10" stroke-linecap="round"/>
<path d="M159.319 14.3188L153.727 8.69922" stroke="#4D2C5E" stroke-opacity="0.1" stroke-width="3" stroke-miterlimit="10" stroke-linecap="round"/>
<path d="M155.835 33.667L148 34.8483" stroke="#4D2C5E" stroke-opacity="0.1" stroke-width="3" stroke-miterlimit="10" stroke-linecap="round"/>
<path d="M77.9929 259.578L8.78841 238.906C3.75514 237.404 0.898255 232.107 2.40002 227.073L16.221 180.788C17.7227 175.755 23.02 172.898 28.0532 174.4L97.2578 195.073C102.291 196.575 105.148 201.872 103.646 206.905L89.8252 253.19C88.3176 258.217 83.0203 261.08 77.9929 259.578Z" stroke="#4D2C5E" stroke-opacity="0.1" stroke-width="4" stroke-miterlimit="10" stroke-linecap="round"/>
<path d="M4.03125 221.601L91.4564 247.717" stroke="#4D2C5E" stroke-opacity="0.1" stroke-width="4" stroke-miterlimit="10" stroke-linecap="round"/>
<path d="M47.9568 242.244C47.5813 243.499 46.2556 244.215 45.0002 243.84C43.7448 243.464 43.0291 242.138 43.4046 240.883C43.78 239.628 45.1058 238.912 46.3612 239.287C47.6166 239.663 48.3322 240.989 47.9568 242.244Z" fill="#4D2C5E"/>
<path d="M53.1983 252.179L33.5977 246.324L30.9567 255.166L50.5574 261.021L53.1983 252.179Z" stroke="#4D2C5E" stroke-opacity="0.1" stroke-width="4" stroke-miterlimit="10" stroke-linecap="round"/>
<path d="M23.6875 253.501L57.5242 263.609" stroke="#4D2C5E" stroke-opacity="0.1" stroke-width="4" stroke-miterlimit="10" stroke-linecap="round"/>
<path d="M613.28 81.835C634.974 81.835 652.56 73.4989 652.56 63.2159C652.56 52.9328 634.974 44.5967 613.28 44.5967C591.586 44.5967 574 52.9328 574 63.2159C574 73.4989 591.586 81.835 613.28 81.835Z" stroke="#4D2C5E" stroke-opacity="0.1" stroke-width="3" stroke-miterlimit="10" stroke-linecap="round" stroke-linejoin="round"/>
<path d="M629.164 72.9214C640.445 54.3927 642.47 35.0375 633.687 29.6903C624.905 24.3431 608.64 35.0288 597.359 53.5574C586.078 72.086 584.053 91.4412 592.836 96.7884C601.619 102.136 617.884 91.45 629.164 72.9214Z" stroke="#4D2C5E" stroke-opacity="0.1" stroke-width="3" stroke-miterlimit="10" stroke-linecap="round" stroke-linejoin="round"/>
<path d="M633.68 96.7804C642.462 91.4332 640.437 72.078 629.157 53.5494C617.876 35.0207 601.611 24.3351 592.828 29.6823C584.046 35.0295 586.071 54.3847 597.351 72.9133C608.632 91.4419 624.897 102.128 633.68 96.7804Z" stroke="#4D2C5E" stroke-opacity="0.1" stroke-width="3" stroke-miterlimit="10" stroke-linecap="round" stroke-linejoin="round"/>
<path d="M613.28 68.1447C616.002 68.1447 618.209 65.938 618.209 63.2159C618.209 60.4938 616.002 58.2871 613.28 58.2871C610.558 58.2871 608.352 60.4938 608.352 63.2159C608.352 65.938 610.558 68.1447 613.28 68.1447Z" stroke="#4D2C5E" stroke-opacity="0.1" stroke-width="3" stroke-miterlimit="10" stroke-linecap="round" stroke-linejoin="round"/>
<path d="M92.2906 513.642L59.8561 521.13L58.3976 514.808C58.0627 513.342 58.9699 511.884 60.4353 511.542L87.5664 505.276C89.0318 504.941 90.4902 505.848 90.8321 507.313L92.2906 513.642Z" stroke="#4D2C5E" stroke-opacity="0.1" stroke-width="3" stroke-miterlimit="10" stroke-linecap="round"/>
<path d="M81.6291 479.643C95.9255 468.116 98.1704 447.182 86.6434 432.886C75.1163 418.589 54.1822 416.344 39.8858 427.872C25.5894 439.399 23.3446 460.333 34.8716 474.629C46.3987 488.925 67.3327 491.17 81.6291 479.643Z" stroke="#4D2C5E" stroke-opacity="0.1" stroke-width="3" stroke-miterlimit="10"/>
<path d="M76.2343 483.176L45.2233 424.35L41.3505 417.211C21.1347 427.867 13.3889 452.89 24.0446 473.106C34.7002 493.322 59.7239 501.068 79.9397 490.412L76.1506 483.224" stroke="#4D2C5E" stroke-opacity="0.1" stroke-width="3" stroke-miterlimit="10" stroke-linecap="round" stroke-linejoin="round"/>
<path d="M52.0574 437.24C62.21 431.887 68.9147 424.654 67.0327 421.084C65.1508 417.515 55.3948 418.961 45.2422 424.314C35.0897 429.666 28.385 436.899 30.267 440.469C32.1489 444.038 41.9048 442.593 52.0574 437.24Z" stroke="#4D2C5E" stroke-opacity="0.1" stroke-width="3" stroke-miterlimit="10"/>
<path d="M54.4414 486.406C61.608 487.788 69.2771 486.846 76.2343 483.175C83.1915 479.505 88.3065 473.713 91.2164 467.021C84.0498 465.639 76.3808 466.581 69.4236 470.252C62.4594 473.922 57.3513 479.714 54.4414 486.406Z" stroke="#4D2C5E" stroke-opacity="0.1" stroke-width="3" stroke-miterlimit="10"/>
<path d="M76.2593 483.14C84.38 478.858 84.0199 462.218 75.455 445.973C66.89 429.728 53.3635 420.03 45.2428 424.312C37.1222 428.594 37.4824 445.233 46.0473 461.478C54.6123 477.723 68.1386 487.421 76.2593 483.14Z" stroke="#4D2C5E" stroke-opacity="0.1" stroke-width="3" stroke-miterlimit="10"/>
<path d="M31.3164 469.268L90.1423 438.257" stroke="#4D2C5E" stroke-opacity="0.1" stroke-width="3" stroke-miterlimit="10"/>
<path d="M70.3867 494.033L73.8199 508.352" stroke="#4D2C5E" stroke-opacity="0.1" stroke-width="3" stroke-miterlimit="10"/>
<path d="M55.9609 522.463L97.3066 512.547" stroke="#4D2C5E" stroke-opacity="0.1" stroke-width="3" stroke-miterlimit="10" stroke-linecap="round"/>
<path d="M669.728 404.023L687.033 386.719L639.083 338.769L621.778 356.073L669.728 404.023Z" stroke="#4D2C5E" stroke-opacity="0.1" stroke-width="3" stroke-miterlimit="10" stroke-linecap="round" stroke-linejoin="round"/>
<path d="M691.712 408.705L687.028 386.715L669.723 404.02L691.712 408.705Z" stroke="#4D2C5E" stroke-opacity="0.1" stroke-width="3" stroke-miterlimit="10" stroke-linecap="round" stroke-linejoin="round"/>
<path d="M689.527 398.445L681.445 406.519" stroke="#4D2C5E" stroke-opacity="0.1" stroke-width="3" stroke-miterlimit="10" stroke-linecap="round" stroke-linejoin="round"/>
<path d="M616.68 342.881L625.881 333.68C628.12 331.44 631.746 331.44 633.985 333.68L639.073 338.768L621.768 356.073L616.68 350.985C614.44 348.746 614.44 345.112 616.68 342.881Z" stroke="#4D2C5E" stroke-opacity="0.1" stroke-width="3" stroke-miterlimit="10" stroke-linecap="round" stroke-linejoin="round"/>
<path d="M643.749 343.437L626.443 360.75" stroke="#4D2C5E" stroke-opacity="0.1" stroke-width="3" stroke-miterlimit="10" stroke-linecap="round" stroke-linejoin="round"/>
<path d="M678.376 395.368L635.098 352.097" stroke="#4D2C5E" stroke-opacity="0.1" stroke-width="3" stroke-miterlimit="10" stroke-linecap="round" stroke-linejoin="round"/>
</svg>
